<?xml version="1.0" encoding="UTF-8" standalone="no"?>
<!DOCTYPE svg PUBLIC "-//W3C//DTD SVG 1.1//EN"
 "http://www.w3.org/Graphics/SVG/1.1/DTD/svg11.dtd">
<!-- Generated by graphviz version 2.40.1 (20161225.0304)
 -->
<!-- Title: %3 Pages: 1 -->
<svg width="246pt" height="155pt"
 viewBox="0.00 0.00 245.84 155.00" xmlns="http://www.w3.org/2000/svg" xmlns:xlink="http://www.w3.org/1999/xlink">
<g id="graph0" class="graph" transform="scale(1 1) rotate(0) translate(4 151)">
<title>%3</title>
<polygon fill="#ffffff" stroke="transparent" points="-4,4 -4,-151 241.8403,-151 241.8403,4 -4,4"/>
<g id="clust1" class="cluster">
<title>cluster4,127</title>
<path fill="none" stroke="#000000" d="M36.2953,-8C36.2953,-8 198.2953,-8 198.2953,-8 204.2953,-8 210.2953,-14 210.2953,-20 210.2953,-20 210.2953,-71 210.2953,-71 210.2953,-77 204.2953,-83 198.2953,-83 198.2953,-83 36.2953,-83 36.2953,-83 30.2953,-83 24.2953,-77 24.2953,-71 24.2953,-71 24.2953,-20 24.2953,-20 24.2953,-14 30.2953,-8 36.2953,-8"/>
<text text-anchor="middle" x="186.2953" y="-15.8" font-family="Times,serif" font-size="14.00" fill="#000000">4,127</text>
</g>
<!-- μ -->
<g id="node1" class="node">
<title>μ</title>
<ellipse fill="none" stroke="#000000" cx="53.2953" cy="-129" rx="53.0913" ry="18"/>
<text text-anchor="middle" x="53.2953" y="-125.3" font-family="Times,serif" font-size="14.00" fill="#000000">μ ~ Normal</text>
</g>
<!-- likelihood -->
<g id="node3" class="node">
<title>likelihood</title>
<ellipse fill="#d3d3d3" stroke="#000000" cx="117.2953" cy="-57" rx="85.2851" ry="18"/>
<text text-anchor="middle" x="117.2953" y="-53.3" font-family="Times,serif" font-size="14.00" fill="#000000">likelihood ~ Normal</text>
</g>
<!-- μ&#45;&gt;likelihood -->
<g id="edge1" class="edge">
<title>μ&#45;&gt;likelihood</title>
<path fill="none" stroke="#000000" d="M68.7879,-111.5708C76.5335,-102.857 86.056,-92.1441 94.6069,-82.5244"/>
<polygon fill="#000000" stroke="#000000" points="97.473,-84.5683 101.5007,-74.7689 92.2411,-79.9177 97.473,-84.5683"/>
</g>
<!-- σ -->
<g id="node2" class="node">
<title>σ</title>
<ellipse fill="none" stroke="#000000" cx="181.2953" cy="-129" rx="56.59" ry="18"/>
<text text-anchor="middle" x="181.2953" y="-125.3" font-family="Times,serif" font-size="14.00" fill="#000000">σ ~ Uniform</text>
</g>
<!-- σ&#45;&gt;likelihood -->
<g id="edge2" class="edge">
<title>σ&#45;&gt;likelihood</title>
<path fill="none" stroke="#000000" d="M165.8027,-111.5708C158.057,-102.857 148.5345,-92.1441 139.9837,-82.5244"/>
<polygon fill="#000000" stroke="#000000" points="142.3494,-79.9177 133.0898,-74.7689 137.1176,-84.5683 142.3494,-79.9177"/>
</g>
</g>
</svg>
