<?xml version="1.0" encoding="utf-8" standalone="no"?>
<!DOCTYPE svg PUBLIC "-//W3C//DTD SVG 1.1//EN"
  "http://www.w3.org/Graphics/SVG/1.1/DTD/svg11.dtd">
<!-- Created with matplotlib (https://matplotlib.org/) -->
<svg height="576pt" version="1.1" viewBox="0 0 576 576" width="576pt" xmlns="http://www.w3.org/2000/svg" xmlns:xlink="http://www.w3.org/1999/xlink">
 <defs>
  <style type="text/css">
*{stroke-linecap:butt;stroke-linejoin:round;}
  </style>
 </defs>
 <g id="figure_1">
  <g id="patch_1">
   <path d="M 0 576 
L 576 576 
L 576 0 
L 0 0 
z
" style="fill:#ffffff;"/>
  </g>
  <g id="axes_1">
   <g id="patch_2">
    <path d="M 43.3 260.6 
L 561.7 260.6 
L 561.7 30.8 
L 43.3 30.8 
z
" style="fill:#ffffff;"/>
   </g>
   <g id="matplotlib.axis_1">
    <g id="xtick_1">
     <g id="line2d_1">
      <defs>
       <path d="M 0 0 
L 0 3.5 
" id="m2b13f54392" style="stroke:#000000;stroke-width:0.8;"/>
      </defs>
      <g>
       <use style="stroke:#000000;stroke-width:0.8;" x="66.863636" xlink:href="#m2b13f54392" y="260.6"/>
      </g>
     </g>
     <g id="text_1">
      <!-- 0 -->
      <defs>
       <path d="M 31.78125 66.40625 
Q 24.171875 66.40625 20.328125 58.90625 
Q 16.5 51.421875 16.5 36.375 
Q 16.5 21.390625 20.328125 13.890625 
Q 24.171875 6.390625 31.78125 6.390625 
Q 39.453125 6.390625 43.28125 13.890625 
Q 47.125 21.390625 47.125 36.375 
Q 47.125 51.421875 43.28125 58.90625 
Q 39.453125 66.40625 31.78125 66.40625 
z
M 31.78125 74.21875 
Q 44.046875 74.21875 50.515625 64.515625 
Q 56.984375 54.828125 56.984375 36.375 
Q 56.984375 17.96875 50.515625 8.265625 
Q 44.046875 -1.421875 31.78125 -1.421875 
Q 19.53125 -1.421875 13.0625 8.265625 
Q 6.59375 17.96875 6.59375 36.375 
Q 6.59375 54.828125 13.0625 64.515625 
Q 19.53125 74.21875 31.78125 74.21875 
z
" id="DejaVuSans-48"/>
      </defs>
      <g transform="translate(61.773636 279.7575)scale(0.16 -0.16)">
       <use xlink:href="#DejaVuSans-48"/>
      </g>
     </g>
    </g>
    <g id="xtick_2">
     <g id="line2d_2">
      <g>
       <use style="stroke:#000000;stroke-width:0.8;" x="126.068753" xlink:href="#m2b13f54392" y="260.6"/>
      </g>
     </g>
     <g id="text_2">
      <!-- 25 -->
      <defs>
       <path d="M 19.1875 8.296875 
L 53.609375 8.296875 
L 53.609375 0 
L 7.328125 0 
L 7.328125 8.296875 
Q 12.9375 14.109375 22.625 23.890625 
Q 32.328125 33.6875 34.8125 36.53125 
Q 39.546875 41.84375 41.421875 45.53125 
Q 43.3125 49.21875 43.3125 52.78125 
Q 43.3125 58.59375 39.234375 62.25 
Q 35.15625 65.921875 28.609375 65.921875 
Q 23.96875 65.921875 18.8125 64.3125 
Q 13.671875 62.703125 7.8125 59.421875 
L 7.8125 69.390625 
Q 13.765625 71.78125 18.9375 73 
Q 24.125 74.21875 28.421875 74.21875 
Q 39.75 74.21875 46.484375 68.546875 
Q 53.21875 62.890625 53.21875 53.421875 
Q 53.21875 48.921875 51.53125 44.890625 
Q 49.859375 40.875 45.40625 35.40625 
Q 44.1875 33.984375 37.640625 27.21875 
Q 31.109375 20.453125 19.1875 8.296875 
z
" id="DejaVuSans-50"/>
       <path d="M 10.796875 72.90625 
L 49.515625 72.90625 
L 49.515625 64.59375 
L 19.828125 64.59375 
L 19.828125 46.734375 
Q 21.96875 47.46875 24.109375 47.828125 
Q 26.265625 48.1875 28.421875 48.1875 
Q 40.625 48.1875 47.75 41.5 
Q 54.890625 34.8125 54.890625 23.390625 
Q 54.890625 11.625 47.5625 5.09375 
Q 40.234375 -1.421875 26.90625 -1.421875 
Q 22.3125 -1.421875 17.546875 -0.640625 
Q 12.796875 0.140625 7.71875 1.703125 
L 7.71875 11.625 
Q 12.109375 9.234375 16.796875 8.0625 
Q 21.484375 6.890625 26.703125 6.890625 
Q 35.15625 6.890625 40.078125 11.328125 
Q 45.015625 15.765625 45.015625 23.390625 
Q 45.015625 31 40.078125 35.4375 
Q 35.15625 39.890625 26.703125 39.890625 
Q 22.75 39.890625 18.8125 39.015625 
Q 14.890625 38.140625 10.796875 36.28125 
z
" id="DejaVuSans-53"/>
      </defs>
      <g transform="translate(115.888753 279.7575)scale(0.16 -0.16)">
       <use xlink:href="#DejaVuSans-50"/>
       <use x="63.623047" xlink:href="#DejaVuSans-53"/>
      </g>
     </g>
    </g>
    <g id="xtick_3">
     <g id="line2d_3">
      <g>
       <use style="stroke:#000000;stroke-width:0.8;" x="185.273869" xlink:href="#m2b13f54392" y="260.6"/>
      </g>
     </g>
     <g id="text_3">
      <!-- 50 -->
      <g transform="translate(175.093869 279.7575)scale(0.16 -0.16)">
       <use xlink:href="#DejaVuSans-53"/>
       <use x="63.623047" xlink:href="#DejaVuSans-48"/>
      </g>
     </g>
    </g>
    <g id="xtick_4">
     <g id="line2d_4">
      <g>
       <use style="stroke:#000000;stroke-width:0.8;" x="244.478986" xlink:href="#m2b13f54392" y="260.6"/>
      </g>
     </g>
     <g id="text_4">
      <!-- 75 -->
      <defs>
       <path d="M 8.203125 72.90625 
L 55.078125 72.90625 
L 55.078125 68.703125 
L 28.609375 0 
L 18.3125 0 
L 43.21875 64.59375 
L 8.203125 64.59375 
z
" id="DejaVuSans-55"/>
      </defs>
      <g transform="translate(234.298986 279.7575)scale(0.16 -0.16)">
       <use xlink:href="#DejaVuSans-55"/>
       <use x="63.623047" xlink:href="#DejaVuSans-53"/>
      </g>
     </g>
    </g>
    <g id="xtick_5">
     <g id="line2d_5">
      <g>
       <use style="stroke:#000000;stroke-width:0.8;" x="303.684102" xlink:href="#m2b13f54392" y="260.6"/>
      </g>
     </g>
     <g id="text_5">
      <!-- 100 -->
      <defs>
       <path d="M 12.40625 8.296875 
L 28.515625 8.296875 
L 28.515625 63.921875 
L 10.984375 60.40625 
L 10.984375 69.390625 
L 28.421875 72.90625 
L 38.28125 72.90625 
L 38.28125 8.296875 
L 54.390625 8.296875 
L 54.390625 0 
L 12.40625 0 
z
" id="DejaVuSans-49"/>
      </defs>
      <g transform="translate(288.414102 279.7575)scale(0.16 -0.16)">
       <use xlink:href="#DejaVuSans-49"/>
       <use x="63.623047" xlink:href="#DejaVuSans-48"/>
       <use x="127.246094" xlink:href="#DejaVuSans-48"/>
      </g>
     </g>
    </g>
    <g id="xtick_6">
     <g id="line2d_6">
      <g>
       <use style="stroke:#000000;stroke-width:0.8;" x="362.889219" xlink:href="#m2b13f54392" y="260.6"/>
      </g>
     </g>
     <g id="text_6">
      <!-- 125 -->
      <g transform="translate(347.619219 279.7575)scale(0.16 -0.16)">
       <use xlink:href="#DejaVuSans-49"/>
       <use x="63.623047" xlink:href="#DejaVuSans-50"/>
       <use x="127.246094" xlink:href="#DejaVuSans-53"/>
      </g>
     </g>
    </g>
    <g id="xtick_7">
     <g id="line2d_7">
      <g>
       <use style="stroke:#000000;stroke-width:0.8;" x="422.094335" xlink:href="#m2b13f54392" y="260.6"/>
      </g>
     </g>
     <g id="text_7">
      <!-- 150 -->
      <g transform="translate(406.824335 279.7575)scale(0.16 -0.16)">
       <use xlink:href="#DejaVuSans-49"/>
       <use x="63.623047" xlink:href="#DejaVuSans-53"/>
       <use x="127.246094" xlink:href="#DejaVuSans-48"/>
      </g>
     </g>
    </g>
    <g id="xtick_8">
     <g id="line2d_8">
      <g>
       <use style="stroke:#000000;stroke-width:0.8;" x="481.299452" xlink:href="#m2b13f54392" y="260.6"/>
      </g>
     </g>
     <g id="text_8">
      <!-- 175 -->
      <g transform="translate(466.029452 279.7575)scale(0.16 -0.16)">
       <use xlink:href="#DejaVuSans-49"/>
       <use x="63.623047" xlink:href="#DejaVuSans-55"/>
       <use x="127.246094" xlink:href="#DejaVuSans-53"/>
      </g>
     </g>
    </g>
    <g id="xtick_9">
     <g id="line2d_9">
      <g>
       <use style="stroke:#000000;stroke-width:0.8;" x="540.504568" xlink:href="#m2b13f54392" y="260.6"/>
      </g>
     </g>
     <g id="text_9">
      <!-- 200 -->
      <g transform="translate(525.234568 279.7575)scale(0.16 -0.16)">
       <use xlink:href="#DejaVuSans-50"/>
       <use x="63.623047" xlink:href="#DejaVuSans-48"/>
       <use x="127.246094" xlink:href="#DejaVuSans-48"/>
      </g>
     </g>
    </g>
    <g id="xtick_10">
     <g id="line2d_10">
      <defs>
       <path d="M 0 0 
L 0 2 
" id="me439310ced" style="stroke:#000000;stroke-width:0.6;"/>
      </defs>
      <g>
       <use style="stroke:#000000;stroke-width:0.6;" x="52.062357" xlink:href="#me439310ced" y="260.6"/>
      </g>
     </g>
    </g>
    <g id="xtick_11">
     <g id="line2d_11">
      <g>
       <use style="stroke:#000000;stroke-width:0.6;" x="81.664915" xlink:href="#me439310ced" y="260.6"/>
      </g>
     </g>
    </g>
    <g id="xtick_12">
     <g id="line2d_12">
      <g>
       <use style="stroke:#000000;stroke-width:0.6;" x="96.466195" xlink:href="#me439310ced" y="260.6"/>
      </g>
     </g>
    </g>
    <g id="xtick_13">
     <g id="line2d_13">
      <g>
       <use style="stroke:#000000;stroke-width:0.6;" x="111.267474" xlink:href="#me439310ced" y="260.6"/>
      </g>
     </g>
    </g>
    <g id="xtick_14">
     <g id="line2d_14">
      <g>
       <use style="stroke:#000000;stroke-width:0.6;" x="140.870032" xlink:href="#me439310ced" y="260.6"/>
      </g>
     </g>
    </g>
    <g id="xtick_15">
     <g id="line2d_15">
      <g>
       <use style="stroke:#000000;stroke-width:0.6;" x="155.671311" xlink:href="#me439310ced" y="260.6"/>
      </g>
     </g>
    </g>
    <g id="xtick_16">
     <g id="line2d_16">
      <g>
       <use style="stroke:#000000;stroke-width:0.6;" x="170.47259" xlink:href="#me439310ced" y="260.6"/>
      </g>
     </g>
    </g>
    <g id="xtick_17">
     <g id="line2d_17">
      <g>
       <use style="stroke:#000000;stroke-width:0.6;" x="200.075148" xlink:href="#me439310ced" y="260.6"/>
      </g>
     </g>
    </g>
    <g id="xtick_18">
     <g id="line2d_18">
      <g>
       <use style="stroke:#000000;stroke-width:0.6;" x="214.876428" xlink:href="#me439310ced" y="260.6"/>
      </g>
     </g>
    </g>
    <g id="xtick_19">
     <g id="line2d_19">
      <g>
       <use style="stroke:#000000;stroke-width:0.6;" x="229.677707" xlink:href="#me439310ced" y="260.6"/>
      </g>
     </g>
    </g>
    <g id="xtick_20">
     <g id="line2d_20">
      <g>
       <use style="stroke:#000000;stroke-width:0.6;" x="259.280265" xlink:href="#me439310ced" y="260.6"/>
      </g>
     </g>
    </g>
    <g id="xtick_21">
     <g id="line2d_21">
      <g>
       <use style="stroke:#000000;stroke-width:0.6;" x="274.081544" xlink:href="#me439310ced" y="260.6"/>
      </g>
     </g>
    </g>
    <g id="xtick_22">
     <g id="line2d_22">
      <g>
       <use style="stroke:#000000;stroke-width:0.6;" x="288.882823" xlink:href="#me439310ced" y="260.6"/>
      </g>
     </g>
    </g>
    <g id="xtick_23">
     <g id="line2d_23">
      <g>
       <use style="stroke:#000000;stroke-width:0.6;" x="318.485381" xlink:href="#me439310ced" y="260.6"/>
      </g>
     </g>
    </g>
    <g id="xtick_24">
     <g id="line2d_24">
      <g>
       <use style="stroke:#000000;stroke-width:0.6;" x="333.286661" xlink:href="#me439310ced" y="260.6"/>
      </g>
     </g>
    </g>
    <g id="xtick_25">
     <g id="line2d_25">
      <g>
       <use style="stroke:#000000;stroke-width:0.6;" x="348.08794" xlink:href="#me439310ced" y="260.6"/>
      </g>
     </g>
    </g>
    <g id="xtick_26">
     <g id="line2d_26">
      <g>
       <use style="stroke:#000000;stroke-width:0.6;" x="377.690498" xlink:href="#me439310ced" y="260.6"/>
      </g>
     </g>
    </g>
    <g id="xtick_27">
     <g id="line2d_27">
      <g>
       <use style="stroke:#000000;stroke-width:0.6;" x="392.491777" xlink:href="#me439310ced" y="260.6"/>
      </g>
     </g>
    </g>
    <g id="xtick_28">
     <g id="line2d_28">
      <g>
       <use style="stroke:#000000;stroke-width:0.6;" x="407.293056" xlink:href="#me439310ced" y="260.6"/>
      </g>
     </g>
    </g>
    <g id="xtick_29">
     <g id="line2d_29">
      <g>
       <use style="stroke:#000000;stroke-width:0.6;" x="436.895614" xlink:href="#me439310ced" y="260.6"/>
      </g>
     </g>
    </g>
    <g id="xtick_30">
     <g id="line2d_30">
      <g>
       <use style="stroke:#000000;stroke-width:0.6;" x="451.696894" xlink:href="#me439310ced" y="260.6"/>
      </g>
     </g>
    </g>
    <g id="xtick_31">
     <g id="line2d_31">
      <g>
       <use style="stroke:#000000;stroke-width:0.6;" x="466.498173" xlink:href="#me439310ced" y="260.6"/>
      </g>
     </g>
    </g>
    <g id="xtick_32">
     <g id="line2d_32">
      <g>
       <use style="stroke:#000000;stroke-width:0.6;" x="496.100731" xlink:href="#me439310ced" y="260.6"/>
      </g>
     </g>
    </g>
    <g id="xtick_33">
     <g id="line2d_33">
      <g>
       <use style="stroke:#000000;stroke-width:0.6;" x="510.90201" xlink:href="#me439310ced" y="260.6"/>
      </g>
     </g>
    </g>
    <g id="xtick_34">
     <g id="line2d_34">
      <g>
       <use style="stroke:#000000;stroke-width:0.6;" x="525.703289" xlink:href="#me439310ced" y="260.6"/>
      </g>
     </g>
    </g>
    <g id="xtick_35">
     <g id="line2d_35">
      <g>
       <use style="stroke:#000000;stroke-width:0.6;" x="555.305847" xlink:href="#me439310ced" y="260.6"/>
      </g>
     </g>
    </g>
   </g>
   <g id="matplotlib.axis_2">
    <g id="ytick_1">
     <g id="line2d_36">
      <defs>
       <path d="M 0 0 
L -3.5 0 
" id="m298bea722d" style="stroke:#000000;stroke-width:0.8;"/>
      </defs>
      <g>
       <use style="stroke:#000000;stroke-width:0.8;" x="43.3" xlink:href="#m298bea722d" y="245.594875"/>
      </g>
     </g>
     <g id="text_10">
      <!-- −1 -->
      <defs>
       <path d="M 10.59375 35.5 
L 73.1875 35.5 
L 73.1875 27.203125 
L 10.59375 27.203125 
z
" id="DejaVuSans-8722"/>
      </defs>
      <g transform="translate(12.7125 251.673625)scale(0.16 -0.16)">
       <use xlink:href="#DejaVuSans-8722"/>
       <use x="83.789062" xlink:href="#DejaVuSans-49"/>
      </g>
     </g>
    </g>
    <g id="ytick_2">
     <g id="line2d_37">
      <g>
       <use style="stroke:#000000;stroke-width:0.8;" x="43.3" xlink:href="#m298bea722d" y="206.426372"/>
      </g>
     </g>
     <g id="text_11">
      <!-- 0 -->
      <g transform="translate(26.12 212.505122)scale(0.16 -0.16)">
       <use xlink:href="#DejaVuSans-48"/>
      </g>
     </g>
    </g>
    <g id="ytick_3">
     <g id="line2d_38">
      <g>
       <use style="stroke:#000000;stroke-width:0.8;" x="43.3" xlink:href="#m298bea722d" y="167.257868"/>
      </g>
     </g>
     <g id="text_12">
      <!-- 1 -->
      <g transform="translate(26.12 173.336618)scale(0.16 -0.16)">
       <use xlink:href="#DejaVuSans-49"/>
      </g>
     </g>
    </g>
    <g id="ytick_4">
     <g id="line2d_39">
      <g>
       <use style="stroke:#000000;stroke-width:0.8;" x="43.3" xlink:href="#m298bea722d" y="128.089365"/>
      </g>
     </g>
     <g id="text_13">
      <!-- 2 -->
      <g transform="translate(26.12 134.168115)scale(0.16 -0.16)">
       <use xlink:href="#DejaVuSans-50"/>
      </g>
     </g>
    </g>
    <g id="ytick_5">
     <g id="line2d_40">
      <g>
       <use style="stroke:#000000;stroke-width:0.8;" x="43.3" xlink:href="#m298bea722d" y="88.920862"/>
      </g>
     </g>
     <g id="text_14">
      <!-- 3 -->
      <defs>
       <path d="M 40.578125 39.3125 
Q 47.65625 37.796875 51.625 33 
Q 55.609375 28.21875 55.609375 21.1875 
Q 55.609375 10.40625 48.1875 4.484375 
Q 40.765625 -1.421875 27.09375 -1.421875 
Q 22.515625 -1.421875 17.65625 -0.515625 
Q 12.796875 0.390625 7.625 2.203125 
L 7.625 11.71875 
Q 11.71875 9.328125 16.59375 8.109375 
Q 21.484375 6.890625 26.8125 6.890625 
Q 36.078125 6.890625 40.9375 10.546875 
Q 45.796875 14.203125 45.796875 21.1875 
Q 45.796875 27.640625 41.28125 31.265625 
Q 36.765625 34.90625 28.71875 34.90625 
L 20.21875 34.90625 
L 20.21875 43.015625 
L 29.109375 43.015625 
Q 36.375 43.015625 40.234375 45.921875 
Q 44.09375 48.828125 44.09375 54.296875 
Q 44.09375 59.90625 40.109375 62.90625 
Q 36.140625 65.921875 28.71875 65.921875 
Q 24.65625 65.921875 20.015625 65.03125 
Q 15.375 64.15625 9.8125 62.3125 
L 9.8125 71.09375 
Q 15.4375 72.65625 20.34375 73.4375 
Q 25.25 74.21875 29.59375 74.21875 
Q 40.828125 74.21875 47.359375 69.109375 
Q 53.90625 64.015625 53.90625 55.328125 
Q 53.90625 49.265625 50.4375 45.09375 
Q 46.96875 40.921875 40.578125 39.3125 
z
" id="DejaVuSans-51"/>
      </defs>
      <g transform="translate(26.12 94.999612)scale(0.16 -0.16)">
       <use xlink:href="#DejaVuSans-51"/>
      </g>
     </g>
    </g>
    <g id="ytick_6">
     <g id="line2d_41">
      <g>
       <use style="stroke:#000000;stroke-width:0.8;" x="43.3" xlink:href="#m298bea722d" y="49.752358"/>
      </g>
     </g>
     <g id="text_15">
      <!-- 4 -->
      <defs>
       <path d="M 37.796875 64.3125 
L 12.890625 25.390625 
L 37.796875 25.390625 
z
M 35.203125 72.90625 
L 47.609375 72.90625 
L 47.609375 25.390625 
L 58.015625 25.390625 
L 58.015625 17.1875 
L 47.609375 17.1875 
L 47.609375 0 
L 37.796875 0 
L 37.796875 17.1875 
L 4.890625 17.1875 
L 4.890625 26.703125 
z
" id="DejaVuSans-52"/>
      </defs>
      <g transform="translate(26.12 55.831108)scale(0.16 -0.16)">
       <use xlink:href="#DejaVuSans-52"/>
      </g>
     </g>
    </g>
    <g id="ytick_7">
     <g id="line2d_42">
      <defs>
       <path d="M 0 0 
L -2 0 
" id="mb43149f8c1" style="stroke:#000000;stroke-width:0.6;"/>
      </defs>
      <g>
       <use style="stroke:#000000;stroke-width:0.6;" x="43.3" xlink:href="#mb43149f8c1" y="253.428576"/>
      </g>
     </g>
    </g>
    <g id="ytick_8">
     <g id="line2d_43">
      <g>
       <use style="stroke:#000000;stroke-width:0.6;" x="43.3" xlink:href="#mb43149f8c1" y="237.761174"/>
      </g>
     </g>
    </g>
    <g id="ytick_9">
     <g id="line2d_44">
      <g>
       <use style="stroke:#000000;stroke-width:0.6;" x="43.3" xlink:href="#mb43149f8c1" y="229.927474"/>
      </g>
     </g>
    </g>
    <g id="ytick_10">
     <g id="line2d_45">
      <g>
       <use style="stroke:#000000;stroke-width:0.6;" x="43.3" xlink:href="#mb43149f8c1" y="222.093773"/>
      </g>
     </g>
    </g>
    <g id="ytick_11">
     <g id="line2d_46">
      <g>
       <use style="stroke:#000000;stroke-width:0.6;" x="43.3" xlink:href="#mb43149f8c1" y="214.260072"/>
      </g>
     </g>
    </g>
    <g id="ytick_12">
     <g id="line2d_47">
      <g>
       <use style="stroke:#000000;stroke-width:0.6;" x="43.3" xlink:href="#mb43149f8c1" y="198.592671"/>
      </g>
     </g>
    </g>
    <g id="ytick_13">
     <g id="line2d_48">
      <g>
       <use style="stroke:#000000;stroke-width:0.6;" x="43.3" xlink:href="#mb43149f8c1" y="190.75897"/>
      </g>
     </g>
    </g>
    <g id="ytick_14">
     <g id="line2d_49">
      <g>
       <use style="stroke:#000000;stroke-width:0.6;" x="43.3" xlink:href="#mb43149f8c1" y="182.92527"/>
      </g>
     </g>
    </g>
    <g id="ytick_15">
     <g id="line2d_50">
      <g>
       <use style="stroke:#000000;stroke-width:0.6;" x="43.3" xlink:href="#mb43149f8c1" y="175.091569"/>
      </g>
     </g>
    </g>
    <g id="ytick_16">
     <g id="line2d_51">
      <g>
       <use style="stroke:#000000;stroke-width:0.6;" x="43.3" xlink:href="#mb43149f8c1" y="159.424168"/>
      </g>
     </g>
    </g>
    <g id="ytick_17">
     <g id="line2d_52">
      <g>
       <use style="stroke:#000000;stroke-width:0.6;" x="43.3" xlink:href="#mb43149f8c1" y="151.590467"/>
      </g>
     </g>
    </g>
    <g id="ytick_18">
     <g id="line2d_53">
      <g>
       <use style="stroke:#000000;stroke-width:0.6;" x="43.3" xlink:href="#mb43149f8c1" y="143.756766"/>
      </g>
     </g>
    </g>
    <g id="ytick_19">
     <g id="line2d_54">
      <g>
       <use style="stroke:#000000;stroke-width:0.6;" x="43.3" xlink:href="#mb43149f8c1" y="135.923066"/>
      </g>
     </g>
    </g>
    <g id="ytick_20">
     <g id="line2d_55">
      <g>
       <use style="stroke:#000000;stroke-width:0.6;" x="43.3" xlink:href="#mb43149f8c1" y="120.255664"/>
      </g>
     </g>
    </g>
    <g id="ytick_21">
     <g id="line2d_56">
      <g>
       <use style="stroke:#000000;stroke-width:0.6;" x="43.3" xlink:href="#mb43149f8c1" y="112.421964"/>
      </g>
     </g>
    </g>
    <g id="ytick_22">
     <g id="line2d_57">
      <g>
       <use style="stroke:#000000;stroke-width:0.6;" x="43.3" xlink:href="#mb43149f8c1" y="104.588263"/>
      </g>
     </g>
    </g>
    <g id="ytick_23">
     <g id="line2d_58">
      <g>
       <use style="stroke:#000000;stroke-width:0.6;" x="43.3" xlink:href="#mb43149f8c1" y="96.754562"/>
      </g>
     </g>
    </g>
    <g id="ytick_24">
     <g id="line2d_59">
      <g>
       <use style="stroke:#000000;stroke-width:0.6;" x="43.3" xlink:href="#mb43149f8c1" y="81.087161"/>
      </g>
     </g>
    </g>
    <g id="ytick_25">
     <g id="line2d_60">
      <g>
       <use style="stroke:#000000;stroke-width:0.6;" x="43.3" xlink:href="#mb43149f8c1" y="73.25346"/>
      </g>
     </g>
    </g>
    <g id="ytick_26">
     <g id="line2d_61">
      <g>
       <use style="stroke:#000000;stroke-width:0.6;" x="43.3" xlink:href="#mb43149f8c1" y="65.41976"/>
      </g>
     </g>
    </g>
    <g id="ytick_27">
     <g id="line2d_62">
      <g>
       <use style="stroke:#000000;stroke-width:0.6;" x="43.3" xlink:href="#mb43149f8c1" y="57.586059"/>
      </g>
     </g>
    </g>
    <g id="ytick_28">
     <g id="line2d_63">
      <g>
       <use style="stroke:#000000;stroke-width:0.6;" x="43.3" xlink:href="#mb43149f8c1" y="41.918658"/>
      </g>
     </g>
    </g>
    <g id="ytick_29">
     <g id="line2d_64">
      <g>
       <use style="stroke:#000000;stroke-width:0.6;" x="43.3" xlink:href="#mb43149f8c1" y="34.084957"/>
      </g>
     </g>
    </g>
   </g>
   <g id="line2d_65">
    <path clip-path="url(#pe54ab80f96)" d="M 66.863636 63.221586 
L 69.231841 57.024767 
L 71.600046 152.73599 
L 73.96825 135.234608 
L 76.336455 52.990727 
L 78.70466 68.545336 
L 81.072864 119.26597 
L 83.441069 105.82341 
L 85.809274 144.103136 
L 88.177478 147.29673 
L 90.545683 84.00018 
L 92.913888 42.996619 
L 95.282092 212.252177 
L 97.650297 220.483473 
L 100.018502 219.846249 
L 102.386706 49.688618 
L 104.754911 57.750015 
L 107.123116 84.22605 
L 109.49132 149.835511 
L 111.859525 204.764421 
L 114.22773 113.086723 
L 116.595934 41.245455 
L 118.964139 207.776221 
L 121.332344 127.353066 
L 123.700548 71.734015 
L 126.068753 140.160334 
L 128.436958 218.664589 
L 130.805162 214.769808 
L 133.173367 56.812521 
L 135.541571 233.839367 
L 137.909776 88.603379 
L 140.277981 242.01071 
L 142.646185 117.497624 
L 145.01439 225.211049 
L 147.382595 217.164216 
L 149.750799 125.340953 
L 152.119004 137.953554 
L 154.487209 85.770433 
L 156.855413 176.438185 
L 159.223618 157.825602 
L 161.591823 132.523013 
L 163.960027 86.635243 
L 166.328232 79.351961 
L 168.696437 124.887291 
L 171.064641 145.843218 
L 173.432846 135.750445 
L 175.801051 143.872484 
L 178.169255 161.503844 
L 180.53746 155.767283 
L 182.905665 102.844282 
L 185.273869 102.961302 
L 187.642074 130.598656 
L 190.010279 154.106652 
L 192.378483 78.352742 
L 194.746688 98.112445 
L 197.114893 137.163622 
L 199.483097 115.964448 
L 201.851302 162.839088 
L 204.219507 154.534595 
L 206.587711 89.885577 
L 208.955916 64.626803 
L 211.324121 49.853361 
L 213.692325 134.591137 
L 216.06053 147.0921 
L 218.428735 78.361569 
L 220.796939 230.079516 
L 223.165144 73.340012 
L 225.533349 104.53493 
L 227.901553 111.813449 
L 230.269758 116.723501 
L 232.637963 162.235021 
L 235.006167 102.885631 
L 237.374372 168.760181 
L 239.742577 163.425323 
L 242.110781 113.805466 
L 244.478986 167.856528 
L 246.84719 89.219913 
L 249.215395 143.373115 
L 251.5836 213.582367 
L 253.951804 229.387245 
L 256.320009 107.838098 
L 258.688214 136.93748 
L 261.056418 124.568622 
L 263.424623 135.891524 
L 268.161032 54.152331 
L 270.529237 201.419039 
L 272.897442 131.548691 
L 275.265646 79.794778 
L 277.633851 90.731016 
L 280.002056 79.734058 
L 282.37026 160.341986 
L 284.738465 148.459443 
L 287.10667 72.870621 
L 289.474874 196.519097 
L 291.843079 174.019857 
L 294.211284 221.546457 
L 296.579488 231.286095 
L 298.947693 71.045788 
L 301.315898 250.154545 
L 303.684102 119.403495 
L 306.052307 98.644401 
L 308.420512 91.568393 
L 310.788716 243.9364 
L 313.156921 161.192095 
L 315.525126 70.042158 
L 317.89333 160.95463 
L 320.261535 143.842542 
L 322.62974 203.152221 
L 327.366149 73.274333 
L 329.734354 159.192271 
L 332.102558 113.619213 
L 334.470763 83.478349 
L 336.838968 76.491893 
L 339.207172 205.870628 
L 341.575377 225.206057 
L 343.943582 118.84268 
L 346.311786 48.825176 
L 348.679991 234.740516 
L 351.048196 125.317496 
L 353.4164 122.781241 
L 355.784605 216.653437 
L 358.15281 154.518566 
L 360.521014 70.96792 
L 362.889219 81.004793 
L 365.257423 132.847004 
L 367.625628 205.735069 
L 369.993833 102.505624 
L 372.362037 241.749903 
L 374.730242 228.822426 
L 377.098447 127.022891 
L 379.466651 113.468299 
L 381.834856 109.449412 
L 384.203061 234.806377 
L 386.571265 105.780641 
L 388.93947 219.293406 
L 391.307675 138.313911 
L 393.675879 222.355376 
L 396.044084 210.742689 
L 398.412289 123.355744 
L 400.780493 114.168154 
L 403.148698 142.541214 
L 405.516903 72.52015 
L 407.885107 223.160579 
L 410.253312 58.072517 
L 412.621517 135.774839 
L 414.989721 110.542333 
L 417.357926 137.396536 
L 419.726131 149.679082 
L 422.094335 71.560104 
L 424.46254 121.644146 
L 426.830745 201.336496 
L 429.198949 116.746546 
L 431.567154 123.936057 
L 433.935359 145.144003 
L 436.303563 70.111796 
L 438.671768 228.738261 
L 441.039973 156.952238 
L 443.408177 120.391514 
L 445.776382 137.368119 
L 448.144587 136.966655 
L 450.512791 164.687176 
L 452.880996 150.485886 
L 455.249201 149.010346 
L 457.617405 132.643018 
L 459.98561 124.159598 
L 462.353815 132.301643 
L 464.722019 138.708708 
L 467.090224 164.821049 
L 469.458429 112.662514 
L 471.826633 72.430962 
L 474.194838 87.075633 
L 476.563042 249.382299 
L 478.931247 96.447332 
L 481.299452 152.906654 
L 483.667656 58.38571 
L 486.035861 176.196615 
L 488.404066 103.393847 
L 490.77227 124.038906 
L 493.140475 86.439812 
L 495.50868 135.703808 
L 497.876884 117.133557 
L 500.245089 150.128021 
L 502.613294 155.037733 
L 504.981498 55.899586 
L 507.349703 194.282605 
L 509.717908 85.894168 
L 512.086112 127.156856 
L 514.454317 135.98944 
L 516.822522 241.958538 
L 519.190726 92.229419 
L 521.558931 83.718117 
L 523.927136 223.133753 
L 526.29534 158.395524 
L 528.663545 144.616676 
L 531.03175 113.308269 
L 533.399954 235.654568 
L 535.768159 120.662102 
L 538.136364 109.191311 
L 538.136364 109.191311 
" style="fill:none;stroke:#000000;stroke-dasharray:1.5,2.475;stroke-dashoffset:0;stroke-width:1.5;"/>
    <defs>
     <path d="M 0 1.5 
C 0.397805 1.5 0.77937 1.341951 1.06066 1.06066 
C 1.341951 0.77937 1.5 0.397805 1.5 0 
C 1.5 -0.397805 1.341951 -0.77937 1.06066 -1.06066 
C 0.77937 -1.341951 0.397805 -1.5 0 -1.5 
C -0.397805 -1.5 -0.77937 -1.341951 -1.06066 -1.06066 
C -1.341951 -0.77937 -1.5 -0.397805 -1.5 0 
C -1.5 0.397805 -1.341951 0.77937 -1.06066 1.06066 
C -0.77937 1.341951 -0.397805 1.5 0 1.5 
z
" id="m0b79fdf5a0" style="stroke:#000000;"/>
    </defs>
    <g clip-path="url(#pe54ab80f96)">
     <use style="stroke:#000000;" x="66.863636" xlink:href="#m0b79fdf5a0" y="63.221586"/>
     <use style="stroke:#000000;" x="69.231841" xlink:href="#m0b79fdf5a0" y="57.024767"/>
     <use style="stroke:#000000;" x="71.600046" xlink:href="#m0b79fdf5a0" y="152.73599"/>
     <use style="stroke:#000000;" x="73.96825" xlink:href="#m0b79fdf5a0" y="135.234608"/>
     <use style="stroke:#000000;" x="76.336455" xlink:href="#m0b79fdf5a0" y="52.990727"/>
     <use style="stroke:#000000;" x="78.70466" xlink:href="#m0b79fdf5a0" y="68.545336"/>
     <use style="stroke:#000000;" x="81.072864" xlink:href="#m0b79fdf5a0" y="119.26597"/>
     <use style="stroke:#000000;" x="83.441069" xlink:href="#m0b79fdf5a0" y="105.82341"/>
     <use style="stroke:#000000;" x="85.809274" xlink:href="#m0b79fdf5a0" y="144.103136"/>
     <use style="stroke:#000000;" x="88.177478" xlink:href="#m0b79fdf5a0" y="147.29673"/>
     <use style="stroke:#000000;" x="90.545683" xlink:href="#m0b79fdf5a0" y="84.00018"/>
     <use style="stroke:#000000;" x="92.913888" xlink:href="#m0b79fdf5a0" y="42.996619"/>
     <use style="stroke:#000000;" x="95.282092" xlink:href="#m0b79fdf5a0" y="212.252177"/>
     <use style="stroke:#000000;" x="97.650297" xlink:href="#m0b79fdf5a0" y="220.483473"/>
     <use style="stroke:#000000;" x="100.018502" xlink:href="#m0b79fdf5a0" y="219.846249"/>
     <use style="stroke:#000000;" x="102.386706" xlink:href="#m0b79fdf5a0" y="49.688618"/>
     <use style="stroke:#000000;" x="104.754911" xlink:href="#m0b79fdf5a0" y="57.750015"/>
     <use style="stroke:#000000;" x="107.123116" xlink:href="#m0b79fdf5a0" y="84.22605"/>
     <use style="stroke:#000000;" x="109.49132" xlink:href="#m0b79fdf5a0" y="149.835511"/>
     <use style="stroke:#000000;" x="111.859525" xlink:href="#m0b79fdf5a0" y="204.764421"/>
     <use style="stroke:#000000;" x="114.22773" xlink:href="#m0b79fdf5a0" y="113.086723"/>
     <use style="stroke:#000000;" x="116.595934" xlink:href="#m0b79fdf5a0" y="41.245455"/>
     <use style="stroke:#000000;" x="118.964139" xlink:href="#m0b79fdf5a0" y="207.776221"/>
     <use style="stroke:#000000;" x="121.332344" xlink:href="#m0b79fdf5a0" y="127.353066"/>
     <use style="stroke:#000000;" x="123.700548" xlink:href="#m0b79fdf5a0" y="71.734015"/>
     <use style="stroke:#000000;" x="126.068753" xlink:href="#m0b79fdf5a0" y="140.160334"/>
     <use style="stroke:#000000;" x="128.436958" xlink:href="#m0b79fdf5a0" y="218.664589"/>
     <use style="stroke:#000000;" x="130.805162" xlink:href="#m0b79fdf5a0" y="214.769808"/>
     <use style="stroke:#000000;" x="133.173367" xlink:href="#m0b79fdf5a0" y="56.812521"/>
     <use style="stroke:#000000;" x="135.541571" xlink:href="#m0b79fdf5a0" y="233.839367"/>
     <use style="stroke:#000000;" x="137.909776" xlink:href="#m0b79fdf5a0" y="88.603379"/>
     <use style="stroke:#000000;" x="140.277981" xlink:href="#m0b79fdf5a0" y="242.01071"/>
     <use style="stroke:#000000;" x="142.646185" xlink:href="#m0b79fdf5a0" y="117.497624"/>
     <use style="stroke:#000000;" x="145.01439" xlink:href="#m0b79fdf5a0" y="225.211049"/>
     <use style="stroke:#000000;" x="147.382595" xlink:href="#m0b79fdf5a0" y="217.164216"/>
     <use style="stroke:#000000;" x="149.750799" xlink:href="#m0b79fdf5a0" y="125.340953"/>
     <use style="stroke:#000000;" x="152.119004" xlink:href="#m0b79fdf5a0" y="137.953554"/>
     <use style="stroke:#000000;" x="154.487209" xlink:href="#m0b79fdf5a0" y="85.770433"/>
     <use style="stroke:#000000;" x="156.855413" xlink:href="#m0b79fdf5a0" y="176.438185"/>
     <use style="stroke:#000000;" x="159.223618" xlink:href="#m0b79fdf5a0" y="157.825602"/>
     <use style="stroke:#000000;" x="161.591823" xlink:href="#m0b79fdf5a0" y="132.523013"/>
     <use style="stroke:#000000;" x="163.960027" xlink:href="#m0b79fdf5a0" y="86.635243"/>
     <use style="stroke:#000000;" x="166.328232" xlink:href="#m0b79fdf5a0" y="79.351961"/>
     <use style="stroke:#000000;" x="168.696437" xlink:href="#m0b79fdf5a0" y="124.887291"/>
     <use style="stroke:#000000;" x="171.064641" xlink:href="#m0b79fdf5a0" y="145.843218"/>
     <use style="stroke:#000000;" x="173.432846" xlink:href="#m0b79fdf5a0" y="135.750445"/>
     <use style="stroke:#000000;" x="175.801051" xlink:href="#m0b79fdf5a0" y="143.872484"/>
     <use style="stroke:#000000;" x="178.169255" xlink:href="#m0b79fdf5a0" y="161.503844"/>
     <use style="stroke:#000000;" x="180.53746" xlink:href="#m0b79fdf5a0" y="155.767283"/>
     <use style="stroke:#000000;" x="182.905665" xlink:href="#m0b79fdf5a0" y="102.844282"/>
     <use style="stroke:#000000;" x="185.273869" xlink:href="#m0b79fdf5a0" y="102.961302"/>
     <use style="stroke:#000000;" x="187.642074" xlink:href="#m0b79fdf5a0" y="130.598656"/>
     <use style="stroke:#000000;" x="190.010279" xlink:href="#m0b79fdf5a0" y="154.106652"/>
     <use style="stroke:#000000;" x="192.378483" xlink:href="#m0b79fdf5a0" y="78.352742"/>
     <use style="stroke:#000000;" x="194.746688" xlink:href="#m0b79fdf5a0" y="98.112445"/>
     <use style="stroke:#000000;" x="197.114893" xlink:href="#m0b79fdf5a0" y="137.163622"/>
     <use style="stroke:#000000;" x="199.483097" xlink:href="#m0b79fdf5a0" y="115.964448"/>
     <use style="stroke:#000000;" x="201.851302" xlink:href="#m0b79fdf5a0" y="162.839088"/>
     <use style="stroke:#000000;" x="204.219507" xlink:href="#m0b79fdf5a0" y="154.534595"/>
     <use style="stroke:#000000;" x="206.587711" xlink:href="#m0b79fdf5a0" y="89.885577"/>
     <use style="stroke:#000000;" x="208.955916" xlink:href="#m0b79fdf5a0" y="64.626803"/>
     <use style="stroke:#000000;" x="211.324121" xlink:href="#m0b79fdf5a0" y="49.853361"/>
     <use style="stroke:#000000;" x="213.692325" xlink:href="#m0b79fdf5a0" y="134.591137"/>
     <use style="stroke:#000000;" x="216.06053" xlink:href="#m0b79fdf5a0" y="147.0921"/>
     <use style="stroke:#000000;" x="218.428735" xlink:href="#m0b79fdf5a0" y="78.361569"/>
     <use style="stroke:#000000;" x="220.796939" xlink:href="#m0b79fdf5a0" y="230.079516"/>
     <use style="stroke:#000000;" x="223.165144" xlink:href="#m0b79fdf5a0" y="73.340012"/>
     <use style="stroke:#000000;" x="225.533349" xlink:href="#m0b79fdf5a0" y="104.53493"/>
     <use style="stroke:#000000;" x="227.901553" xlink:href="#m0b79fdf5a0" y="111.813449"/>
     <use style="stroke:#000000;" x="230.269758" xlink:href="#m0b79fdf5a0" y="116.723501"/>
     <use style="stroke:#000000;" x="232.637963" xlink:href="#m0b79fdf5a0" y="162.235021"/>
     <use style="stroke:#000000;" x="235.006167" xlink:href="#m0b79fdf5a0" y="102.885631"/>
     <use style="stroke:#000000;" x="237.374372" xlink:href="#m0b79fdf5a0" y="168.760181"/>
     <use style="stroke:#000000;" x="239.742577" xlink:href="#m0b79fdf5a0" y="163.425323"/>
     <use style="stroke:#000000;" x="242.110781" xlink:href="#m0b79fdf5a0" y="113.805466"/>
     <use style="stroke:#000000;" x="244.478986" xlink:href="#m0b79fdf5a0" y="167.856528"/>
     <use style="stroke:#000000;" x="246.84719" xlink:href="#m0b79fdf5a0" y="89.219913"/>
     <use style="stroke:#000000;" x="249.215395" xlink:href="#m0b79fdf5a0" y="143.373115"/>
     <use style="stroke:#000000;" x="251.5836" xlink:href="#m0b79fdf5a0" y="213.582367"/>
     <use style="stroke:#000000;" x="253.951804" xlink:href="#m0b79fdf5a0" y="229.387245"/>
     <use style="stroke:#000000;" x="256.320009" xlink:href="#m0b79fdf5a0" y="107.838098"/>
     <use style="stroke:#000000;" x="258.688214" xlink:href="#m0b79fdf5a0" y="136.93748"/>
     <use style="stroke:#000000;" x="261.056418" xlink:href="#m0b79fdf5a0" y="124.568622"/>
     <use style="stroke:#000000;" x="263.424623" xlink:href="#m0b79fdf5a0" y="135.891524"/>
     <use style="stroke:#000000;" x="265.792828" xlink:href="#m0b79fdf5a0" y="94.787247"/>
     <use style="stroke:#000000;" x="268.161032" xlink:href="#m0b79fdf5a0" y="54.152331"/>
     <use style="stroke:#000000;" x="270.529237" xlink:href="#m0b79fdf5a0" y="201.419039"/>
     <use style="stroke:#000000;" x="272.897442" xlink:href="#m0b79fdf5a0" y="131.548691"/>
     <use style="stroke:#000000;" x="275.265646" xlink:href="#m0b79fdf5a0" y="79.794778"/>
     <use style="stroke:#000000;" x="277.633851" xlink:href="#m0b79fdf5a0" y="90.731016"/>
     <use style="stroke:#000000;" x="280.002056" xlink:href="#m0b79fdf5a0" y="79.734058"/>
     <use style="stroke:#000000;" x="282.37026" xlink:href="#m0b79fdf5a0" y="160.341986"/>
     <use style="stroke:#000000;" x="284.738465" xlink:href="#m0b79fdf5a0" y="148.459443"/>
     <use style="stroke:#000000;" x="287.10667" xlink:href="#m0b79fdf5a0" y="72.870621"/>
     <use style="stroke:#000000;" x="289.474874" xlink:href="#m0b79fdf5a0" y="196.519097"/>
     <use style="stroke:#000000;" x="291.843079" xlink:href="#m0b79fdf5a0" y="174.019857"/>
     <use style="stroke:#000000;" x="294.211284" xlink:href="#m0b79fdf5a0" y="221.546457"/>
     <use style="stroke:#000000;" x="296.579488" xlink:href="#m0b79fdf5a0" y="231.286095"/>
     <use style="stroke:#000000;" x="298.947693" xlink:href="#m0b79fdf5a0" y="71.045788"/>
     <use style="stroke:#000000;" x="301.315898" xlink:href="#m0b79fdf5a0" y="250.154545"/>
     <use style="stroke:#000000;" x="303.684102" xlink:href="#m0b79fdf5a0" y="119.403495"/>
     <use style="stroke:#000000;" x="306.052307" xlink:href="#m0b79fdf5a0" y="98.644401"/>
     <use style="stroke:#000000;" x="308.420512" xlink:href="#m0b79fdf5a0" y="91.568393"/>
     <use style="stroke:#000000;" x="310.788716" xlink:href="#m0b79fdf5a0" y="243.9364"/>
     <use style="stroke:#000000;" x="313.156921" xlink:href="#m0b79fdf5a0" y="161.192095"/>
     <use style="stroke:#000000;" x="315.525126" xlink:href="#m0b79fdf5a0" y="70.042158"/>
     <use style="stroke:#000000;" x="317.89333" xlink:href="#m0b79fdf5a0" y="160.95463"/>
     <use style="stroke:#000000;" x="320.261535" xlink:href="#m0b79fdf5a0" y="143.842542"/>
     <use style="stroke:#000000;" x="322.62974" xlink:href="#m0b79fdf5a0" y="203.152221"/>
     <use style="stroke:#000000;" x="324.997944" xlink:href="#m0b79fdf5a0" y="139.186091"/>
     <use style="stroke:#000000;" x="327.366149" xlink:href="#m0b79fdf5a0" y="73.274333"/>
     <use style="stroke:#000000;" x="329.734354" xlink:href="#m0b79fdf5a0" y="159.192271"/>
     <use style="stroke:#000000;" x="332.102558" xlink:href="#m0b79fdf5a0" y="113.619213"/>
     <use style="stroke:#000000;" x="334.470763" xlink:href="#m0b79fdf5a0" y="83.478349"/>
     <use style="stroke:#000000;" x="336.838968" xlink:href="#m0b79fdf5a0" y="76.491893"/>
     <use style="stroke:#000000;" x="339.207172" xlink:href="#m0b79fdf5a0" y="205.870628"/>
     <use style="stroke:#000000;" x="341.575377" xlink:href="#m0b79fdf5a0" y="225.206057"/>
     <use style="stroke:#000000;" x="343.943582" xlink:href="#m0b79fdf5a0" y="118.84268"/>
     <use style="stroke:#000000;" x="346.311786" xlink:href="#m0b79fdf5a0" y="48.825176"/>
     <use style="stroke:#000000;" x="348.679991" xlink:href="#m0b79fdf5a0" y="234.740516"/>
     <use style="stroke:#000000;" x="351.048196" xlink:href="#m0b79fdf5a0" y="125.317496"/>
     <use style="stroke:#000000;" x="353.4164" xlink:href="#m0b79fdf5a0" y="122.781241"/>
     <use style="stroke:#000000;" x="355.784605" xlink:href="#m0b79fdf5a0" y="216.653437"/>
     <use style="stroke:#000000;" x="358.15281" xlink:href="#m0b79fdf5a0" y="154.518566"/>
     <use style="stroke:#000000;" x="360.521014" xlink:href="#m0b79fdf5a0" y="70.96792"/>
     <use style="stroke:#000000;" x="362.889219" xlink:href="#m0b79fdf5a0" y="81.004793"/>
     <use style="stroke:#000000;" x="365.257423" xlink:href="#m0b79fdf5a0" y="132.847004"/>
     <use style="stroke:#000000;" x="367.625628" xlink:href="#m0b79fdf5a0" y="205.735069"/>
     <use style="stroke:#000000;" x="369.993833" xlink:href="#m0b79fdf5a0" y="102.505624"/>
     <use style="stroke:#000000;" x="372.362037" xlink:href="#m0b79fdf5a0" y="241.749903"/>
     <use style="stroke:#000000;" x="374.730242" xlink:href="#m0b79fdf5a0" y="228.822426"/>
     <use style="stroke:#000000;" x="377.098447" xlink:href="#m0b79fdf5a0" y="127.022891"/>
     <use style="stroke:#000000;" x="379.466651" xlink:href="#m0b79fdf5a0" y="113.468299"/>
     <use style="stroke:#000000;" x="381.834856" xlink:href="#m0b79fdf5a0" y="109.449412"/>
     <use style="stroke:#000000;" x="384.203061" xlink:href="#m0b79fdf5a0" y="234.806377"/>
     <use style="stroke:#000000;" x="386.571265" xlink:href="#m0b79fdf5a0" y="105.780641"/>
     <use style="stroke:#000000;" x="388.93947" xlink:href="#m0b79fdf5a0" y="219.293406"/>
     <use style="stroke:#000000;" x="391.307675" xlink:href="#m0b79fdf5a0" y="138.313911"/>
     <use style="stroke:#000000;" x="393.675879" xlink:href="#m0b79fdf5a0" y="222.355376"/>
     <use style="stroke:#000000;" x="396.044084" xlink:href="#m0b79fdf5a0" y="210.742689"/>
     <use style="stroke:#000000;" x="398.412289" xlink:href="#m0b79fdf5a0" y="123.355744"/>
     <use style="stroke:#000000;" x="400.780493" xlink:href="#m0b79fdf5a0" y="114.168154"/>
     <use style="stroke:#000000;" x="403.148698" xlink:href="#m0b79fdf5a0" y="142.541214"/>
     <use style="stroke:#000000;" x="405.516903" xlink:href="#m0b79fdf5a0" y="72.52015"/>
     <use style="stroke:#000000;" x="407.885107" xlink:href="#m0b79fdf5a0" y="223.160579"/>
     <use style="stroke:#000000;" x="410.253312" xlink:href="#m0b79fdf5a0" y="58.072517"/>
     <use style="stroke:#000000;" x="412.621517" xlink:href="#m0b79fdf5a0" y="135.774839"/>
     <use style="stroke:#000000;" x="414.989721" xlink:href="#m0b79fdf5a0" y="110.542333"/>
     <use style="stroke:#000000;" x="417.357926" xlink:href="#m0b79fdf5a0" y="137.396536"/>
     <use style="stroke:#000000;" x="419.726131" xlink:href="#m0b79fdf5a0" y="149.679082"/>
     <use style="stroke:#000000;" x="422.094335" xlink:href="#m0b79fdf5a0" y="71.560104"/>
     <use style="stroke:#000000;" x="424.46254" xlink:href="#m0b79fdf5a0" y="121.644146"/>
     <use style="stroke:#000000;" x="426.830745" xlink:href="#m0b79fdf5a0" y="201.336496"/>
     <use style="stroke:#000000;" x="429.198949" xlink:href="#m0b79fdf5a0" y="116.746546"/>
     <use style="stroke:#000000;" x="431.567154" xlink:href="#m0b79fdf5a0" y="123.936057"/>
     <use style="stroke:#000000;" x="433.935359" xlink:href="#m0b79fdf5a0" y="145.144003"/>
     <use style="stroke:#000000;" x="436.303563" xlink:href="#m0b79fdf5a0" y="70.111796"/>
     <use style="stroke:#000000;" x="438.671768" xlink:href="#m0b79fdf5a0" y="228.738261"/>
     <use style="stroke:#000000;" x="441.039973" xlink:href="#m0b79fdf5a0" y="156.952238"/>
     <use style="stroke:#000000;" x="443.408177" xlink:href="#m0b79fdf5a0" y="120.391514"/>
     <use style="stroke:#000000;" x="445.776382" xlink:href="#m0b79fdf5a0" y="137.368119"/>
     <use style="stroke:#000000;" x="448.144587" xlink:href="#m0b79fdf5a0" y="136.966655"/>
     <use style="stroke:#000000;" x="450.512791" xlink:href="#m0b79fdf5a0" y="164.687176"/>
     <use style="stroke:#000000;" x="452.880996" xlink:href="#m0b79fdf5a0" y="150.485886"/>
     <use style="stroke:#000000;" x="455.249201" xlink:href="#m0b79fdf5a0" y="149.010346"/>
     <use style="stroke:#000000;" x="457.617405" xlink:href="#m0b79fdf5a0" y="132.643018"/>
     <use style="stroke:#000000;" x="459.98561" xlink:href="#m0b79fdf5a0" y="124.159598"/>
     <use style="stroke:#000000;" x="462.353815" xlink:href="#m0b79fdf5a0" y="132.301643"/>
     <use style="stroke:#000000;" x="464.722019" xlink:href="#m0b79fdf5a0" y="138.708708"/>
     <use style="stroke:#000000;" x="467.090224" xlink:href="#m0b79fdf5a0" y="164.821049"/>
     <use style="stroke:#000000;" x="469.458429" xlink:href="#m0b79fdf5a0" y="112.662514"/>
     <use style="stroke:#000000;" x="471.826633" xlink:href="#m0b79fdf5a0" y="72.430962"/>
     <use style="stroke:#000000;" x="474.194838" xlink:href="#m0b79fdf5a0" y="87.075633"/>
     <use style="stroke:#000000;" x="476.563042" xlink:href="#m0b79fdf5a0" y="249.382299"/>
     <use style="stroke:#000000;" x="478.931247" xlink:href="#m0b79fdf5a0" y="96.447332"/>
     <use style="stroke:#000000;" x="481.299452" xlink:href="#m0b79fdf5a0" y="152.906654"/>
     <use style="stroke:#000000;" x="483.667656" xlink:href="#m0b79fdf5a0" y="58.38571"/>
     <use style="stroke:#000000;" x="486.035861" xlink:href="#m0b79fdf5a0" y="176.196615"/>
     <use style="stroke:#000000;" x="488.404066" xlink:href="#m0b79fdf5a0" y="103.393847"/>
     <use style="stroke:#000000;" x="490.77227" xlink:href="#m0b79fdf5a0" y="124.038906"/>
     <use style="stroke:#000000;" x="493.140475" xlink:href="#m0b79fdf5a0" y="86.439812"/>
     <use style="stroke:#000000;" x="495.50868" xlink:href="#m0b79fdf5a0" y="135.703808"/>
     <use style="stroke:#000000;" x="497.876884" xlink:href="#m0b79fdf5a0" y="117.133557"/>
     <use style="stroke:#000000;" x="500.245089" xlink:href="#m0b79fdf5a0" y="150.128021"/>
     <use style="stroke:#000000;" x="502.613294" xlink:href="#m0b79fdf5a0" y="155.037733"/>
     <use style="stroke:#000000;" x="504.981498" xlink:href="#m0b79fdf5a0" y="55.899586"/>
     <use style="stroke:#000000;" x="507.349703" xlink:href="#m0b79fdf5a0" y="194.282605"/>
     <use style="stroke:#000000;" x="509.717908" xlink:href="#m0b79fdf5a0" y="85.894168"/>
     <use style="stroke:#000000;" x="512.086112" xlink:href="#m0b79fdf5a0" y="127.156856"/>
     <use style="stroke:#000000;" x="514.454317" xlink:href="#m0b79fdf5a0" y="135.98944"/>
     <use style="stroke:#000000;" x="516.822522" xlink:href="#m0b79fdf5a0" y="241.958538"/>
     <use style="stroke:#000000;" x="519.190726" xlink:href="#m0b79fdf5a0" y="92.229419"/>
     <use style="stroke:#000000;" x="521.558931" xlink:href="#m0b79fdf5a0" y="83.718117"/>
     <use style="stroke:#000000;" x="523.927136" xlink:href="#m0b79fdf5a0" y="223.133753"/>
     <use style="stroke:#000000;" x="526.29534" xlink:href="#m0b79fdf5a0" y="158.395524"/>
     <use style="stroke:#000000;" x="528.663545" xlink:href="#m0b79fdf5a0" y="144.616676"/>
     <use style="stroke:#000000;" x="531.03175" xlink:href="#m0b79fdf5a0" y="113.308269"/>
     <use style="stroke:#000000;" x="533.399954" xlink:href="#m0b79fdf5a0" y="235.654568"/>
     <use style="stroke:#000000;" x="535.768159" xlink:href="#m0b79fdf5a0" y="120.662102"/>
     <use style="stroke:#000000;" x="538.136364" xlink:href="#m0b79fdf5a0" y="109.191311"/>
    </g>
   </g>
   <g id="patch_3">
    <path d="M 43.3 260.6 
L 43.3 30.8 
" style="fill:none;stroke:#000000;stroke-linecap:square;stroke-linejoin:miter;stroke-width:0.8;"/>
   </g>
   <g id="patch_4">
    <path d="M 561.7 260.6 
L 561.7 30.8 
" style="fill:none;stroke:#000000;stroke-linecap:square;stroke-linejoin:miter;stroke-width:0.8;"/>
   </g>
   <g id="patch_5">
    <path d="M 43.3 260.6 
L 561.7 260.6 
" style="fill:none;stroke:#000000;stroke-linecap:square;stroke-linejoin:miter;stroke-width:0.8;"/>
   </g>
   <g id="patch_6">
    <path d="M 43.3 30.8 
L 561.7 30.8 
" style="fill:none;stroke:#000000;stroke-linecap:square;stroke-linejoin:miter;stroke-width:0.8;"/>
   </g>
   <g id="text_16">
    <!-- thinned trace of μ -->
    <defs>
     <path d="M 18.3125 70.21875 
L 18.3125 54.6875 
L 36.8125 54.6875 
L 36.8125 47.703125 
L 18.3125 47.703125 
L 18.3125 18.015625 
Q 18.3125 11.328125 20.140625 9.421875 
Q 21.96875 7.515625 27.59375 7.515625 
L 36.8125 7.515625 
L 36.8125 0 
L 27.59375 0 
Q 17.1875 0 13.234375 3.875 
Q 9.28125 7.765625 9.28125 18.015625 
L 9.28125 47.703125 
L 2.6875 47.703125 
L 2.6875 54.6875 
L 9.28125 54.6875 
L 9.28125 70.21875 
z
" id="DejaVuSans-116"/>
     <path d="M 54.890625 33.015625 
L 54.890625 0 
L 45.90625 0 
L 45.90625 32.71875 
Q 45.90625 40.484375 42.875 44.328125 
Q 39.84375 48.1875 33.796875 48.1875 
Q 26.515625 48.1875 22.3125 43.546875 
Q 18.109375 38.921875 18.109375 30.90625 
L 18.109375 0 
L 9.078125 0 
L 9.078125 75.984375 
L 18.109375 75.984375 
L 18.109375 46.1875 
Q 21.34375 51.125 25.703125 53.5625 
Q 30.078125 56 35.796875 56 
Q 45.21875 56 50.046875 50.171875 
Q 54.890625 44.34375 54.890625 33.015625 
z
" id="DejaVuSans-104"/>
     <path d="M 9.421875 54.6875 
L 18.40625 54.6875 
L 18.40625 0 
L 9.421875 0 
z
M 9.421875 75.984375 
L 18.40625 75.984375 
L 18.40625 64.59375 
L 9.421875 64.59375 
z
" id="DejaVuSans-105"/>
     <path d="M 54.890625 33.015625 
L 54.890625 0 
L 45.90625 0 
L 45.90625 32.71875 
Q 45.90625 40.484375 42.875 44.328125 
Q 39.84375 48.1875 33.796875 48.1875 
Q 26.515625 48.1875 22.3125 43.546875 
Q 18.109375 38.921875 18.109375 30.90625 
L 18.109375 0 
L 9.078125 0 
L 9.078125 54.6875 
L 18.109375 54.6875 
L 18.109375 46.1875 
Q 21.34375 51.125 25.703125 53.5625 
Q 30.078125 56 35.796875 56 
Q 45.21875 56 50.046875 50.171875 
Q 54.890625 44.34375 54.890625 33.015625 
z
" id="DejaVuSans-110"/>
     <path d="M 56.203125 29.59375 
L 56.203125 25.203125 
L 14.890625 25.203125 
Q 15.484375 15.921875 20.484375 11.0625 
Q 25.484375 6.203125 34.421875 6.203125 
Q 39.59375 6.203125 44.453125 7.46875 
Q 49.3125 8.734375 54.109375 11.28125 
L 54.109375 2.78125 
Q 49.265625 0.734375 44.1875 -0.34375 
Q 39.109375 -1.421875 33.890625 -1.421875 
Q 20.796875 -1.421875 13.15625 6.1875 
Q 5.515625 13.8125 5.515625 26.8125 
Q 5.515625 40.234375 12.765625 48.109375 
Q 20.015625 56 32.328125 56 
Q 43.359375 56 49.78125 48.890625 
Q 56.203125 41.796875 56.203125 29.59375 
z
M 47.21875 32.234375 
Q 47.125 39.59375 43.09375 43.984375 
Q 39.0625 48.390625 32.421875 48.390625 
Q 24.90625 48.390625 20.390625 44.140625 
Q 15.875 39.890625 15.1875 32.171875 
z
" id="DejaVuSans-101"/>
     <path d="M 45.40625 46.390625 
L 45.40625 75.984375 
L 54.390625 75.984375 
L 54.390625 0 
L 45.40625 0 
L 45.40625 8.203125 
Q 42.578125 3.328125 38.25 0.953125 
Q 33.9375 -1.421875 27.875 -1.421875 
Q 17.96875 -1.421875 11.734375 6.484375 
Q 5.515625 14.40625 5.515625 27.296875 
Q 5.515625 40.1875 11.734375 48.09375 
Q 17.96875 56 27.875 56 
Q 33.9375 56 38.25 53.625 
Q 42.578125 51.265625 45.40625 46.390625 
z
M 14.796875 27.296875 
Q 14.796875 17.390625 18.875 11.75 
Q 22.953125 6.109375 30.078125 6.109375 
Q 37.203125 6.109375 41.296875 11.75 
Q 45.40625 17.390625 45.40625 27.296875 
Q 45.40625 37.203125 41.296875 42.84375 
Q 37.203125 48.484375 30.078125 48.484375 
Q 22.953125 48.484375 18.875 42.84375 
Q 14.796875 37.203125 14.796875 27.296875 
z
" id="DejaVuSans-100"/>
     <path id="DejaVuSans-32"/>
     <path d="M 41.109375 46.296875 
Q 39.59375 47.171875 37.8125 47.578125 
Q 36.03125 48 33.890625 48 
Q 26.265625 48 22.1875 43.046875 
Q 18.109375 38.09375 18.109375 28.8125 
L 18.109375 0 
L 9.078125 0 
L 9.078125 54.6875 
L 18.109375 54.6875 
L 18.109375 46.1875 
Q 20.953125 51.171875 25.484375 53.578125 
Q 30.03125 56 36.53125 56 
Q 37.453125 56 38.578125 55.875 
Q 39.703125 55.765625 41.0625 55.515625 
z
" id="DejaVuSans-114"/>
     <path d="M 34.28125 27.484375 
Q 23.390625 27.484375 19.1875 25 
Q 14.984375 22.515625 14.984375 16.5 
Q 14.984375 11.71875 18.140625 8.90625 
Q 21.296875 6.109375 26.703125 6.109375 
Q 34.1875 6.109375 38.703125 11.40625 
Q 43.21875 16.703125 43.21875 25.484375 
L 43.21875 27.484375 
z
M 52.203125 31.203125 
L 52.203125 0 
L 43.21875 0 
L 43.21875 8.296875 
Q 40.140625 3.328125 35.546875 0.953125 
Q 30.953125 -1.421875 24.3125 -1.421875 
Q 15.921875 -1.421875 10.953125 3.296875 
Q 6 8.015625 6 15.921875 
Q 6 25.140625 12.171875 29.828125 
Q 18.359375 34.515625 30.609375 34.515625 
L 43.21875 34.515625 
L 43.21875 35.40625 
Q 43.21875 41.609375 39.140625 45 
Q 35.0625 48.390625 27.6875 48.390625 
Q 23 48.390625 18.546875 47.265625 
Q 14.109375 46.140625 10.015625 43.890625 
L 10.015625 52.203125 
Q 14.9375 54.109375 19.578125 55.046875 
Q 24.21875 56 28.609375 56 
Q 40.484375 56 46.34375 49.84375 
Q 52.203125 43.703125 52.203125 31.203125 
z
" id="DejaVuSans-97"/>
     <path d="M 48.78125 52.59375 
L 48.78125 44.1875 
Q 44.96875 46.296875 41.140625 47.34375 
Q 37.3125 48.390625 33.40625 48.390625 
Q 24.65625 48.390625 19.8125 42.84375 
Q 14.984375 37.3125 14.984375 27.296875 
Q 14.984375 17.28125 19.8125 11.734375 
Q 24.65625 6.203125 33.40625 6.203125 
Q 37.3125 6.203125 41.140625 7.25 
Q 44.96875 8.296875 48.78125 10.40625 
L 48.78125 2.09375 
Q 45.015625 0.34375 40.984375 -0.53125 
Q 36.96875 -1.421875 32.421875 -1.421875 
Q 20.0625 -1.421875 12.78125 6.34375 
Q 5.515625 14.109375 5.515625 27.296875 
Q 5.515625 40.671875 12.859375 48.328125 
Q 20.21875 56 33.015625 56 
Q 37.15625 56 41.109375 55.140625 
Q 45.0625 54.296875 48.78125 52.59375 
z
" id="DejaVuSans-99"/>
     <path d="M 30.609375 48.390625 
Q 23.390625 48.390625 19.1875 42.75 
Q 14.984375 37.109375 14.984375 27.296875 
Q 14.984375 17.484375 19.15625 11.84375 
Q 23.34375 6.203125 30.609375 6.203125 
Q 37.796875 6.203125 41.984375 11.859375 
Q 46.1875 17.53125 46.1875 27.296875 
Q 46.1875 37.015625 41.984375 42.703125 
Q 37.796875 48.390625 30.609375 48.390625 
z
M 30.609375 56 
Q 42.328125 56 49.015625 48.375 
Q 55.71875 40.765625 55.71875 27.296875 
Q 55.71875 13.875 49.015625 6.21875 
Q 42.328125 -1.421875 30.609375 -1.421875 
Q 18.84375 -1.421875 12.171875 6.21875 
Q 5.515625 13.875 5.515625 27.296875 
Q 5.515625 40.765625 12.171875 48.375 
Q 18.84375 56 30.609375 56 
z
" id="DejaVuSans-111"/>
     <path d="M 37.109375 75.984375 
L 37.109375 68.5 
L 28.515625 68.5 
Q 23.6875 68.5 21.796875 66.546875 
Q 19.921875 64.59375 19.921875 59.515625 
L 19.921875 54.6875 
L 34.71875 54.6875 
L 34.71875 47.703125 
L 19.921875 47.703125 
L 19.921875 0 
L 10.890625 0 
L 10.890625 47.703125 
L 2.296875 47.703125 
L 2.296875 54.6875 
L 10.890625 54.6875 
L 10.890625 58.5 
Q 10.890625 67.625 15.140625 71.796875 
Q 19.390625 75.984375 28.609375 75.984375 
z
" id="DejaVuSans-102"/>
     <path d="M 8.5 -20.796875 
L 8.5 54.6875 
L 17.484375 54.6875 
L 17.484375 20.703125 
Q 17.484375 13.625 20.84375 10 
Q 24.21875 6.390625 30.8125 6.390625 
Q 38.03125 6.390625 41.671875 10.484375 
Q 45.3125 14.59375 45.3125 22.796875 
L 45.3125 54.6875 
L 54.296875 54.6875 
L 54.296875 12.59375 
Q 54.296875 9.671875 55.140625 8.28125 
Q 56 6.890625 57.8125 6.890625 
Q 58.25 6.890625 59.03125 7.15625 
Q 59.8125 7.421875 61.1875 8.015625 
L 61.1875 0.78125 
Q 59.1875 -0.34375 57.390625 -0.875 
Q 55.609375 -1.421875 53.90625 -1.421875 
Q 50.53125 -1.421875 48.53125 0.484375 
Q 46.53125 2.390625 45.796875 6.296875 
Q 43.359375 2.4375 39.8125 0.5 
Q 36.28125 -1.421875 31.5 -1.421875 
Q 26.515625 -1.421875 23.015625 0.484375 
Q 19.53125 2.390625 17.484375 6.203125 
L 17.484375 -20.796875 
z
" id="DejaVuSans-956"/>
    </defs>
    <g transform="translate(221.896563 24.8)scale(0.18 -0.18)">
     <use xlink:href="#DejaVuSans-116"/>
     <use x="39.208984" xlink:href="#DejaVuSans-104"/>
     <use x="102.587891" xlink:href="#DejaVuSans-105"/>
     <use x="130.371094" xlink:href="#DejaVuSans-110"/>
     <use x="193.75" xlink:href="#DejaVuSans-110"/>
     <use x="257.128906" xlink:href="#DejaVuSans-101"/>
     <use x="318.652344" xlink:href="#DejaVuSans-100"/>
     <use x="382.128906" xlink:href="#DejaVuSans-32"/>
     <use x="413.916016" xlink:href="#DejaVuSans-116"/>
     <use x="453.125" xlink:href="#DejaVuSans-114"/>
     <use x="494.238281" xlink:href="#DejaVuSans-97"/>
     <use x="555.517578" xlink:href="#DejaVuSans-99"/>
     <use x="610.498047" xlink:href="#DejaVuSans-101"/>
     <use x="672.021484" xlink:href="#DejaVuSans-32"/>
     <use x="703.808594" xlink:href="#DejaVuSans-111"/>
     <use x="764.990234" xlink:href="#DejaVuSans-102"/>
     <use x="800.195312" xlink:href="#DejaVuSans-32"/>
     <use x="831.982422" xlink:href="#DejaVuSans-956"/>
    </g>
   </g>
  </g>
  <g id="axes_2">
   <g id="patch_7">
    <path d="M 43.3 543.2 
L 561.7 543.2 
L 561.7 313.4 
L 43.3 313.4 
z
" style="fill:#ffffff;"/>
   </g>
   <g id="line2d_66">
    <path clip-path="url(#pc5d5e9f58f)" d="M 66.863636 483.710795 
L 69.231841 483.710795 
L 71.600046 483.325847 
L 73.96825 482.707772 
L 76.336455 481.675063 
L 78.70466 480.289663 
L 81.072864 478.729518 
L 83.441069 476.862163 
L 85.809274 474.671856 
L 90.545683 469.569122 
L 95.282092 463.825797 
L 102.386706 454.331202 
L 107.123116 448.035029 
L 109.49132 445.013763 
L 114.22773 439.54639 
L 116.595934 437.235759 
L 118.964139 435.089731 
L 121.332344 433.385883 
L 123.700548 432.075945 
L 126.068753 431.183244 
L 128.436958 430.801454 
L 130.805162 430.694766 
L 133.173367 431.062043 
L 135.541571 431.788385 
L 137.909776 432.938046 
L 140.277981 434.476544 
L 142.646185 436.272717 
L 145.01439 438.419966 
L 149.750799 443.188825 
L 154.487209 448.572018 
L 159.223618 454.466117 
L 166.328232 464.048102 
L 171.064641 470.97667 
L 180.53746 485.969062 
L 187.642074 497.761766 
L 192.378483 505.0973 
L 194.746688 508.431005 
L 197.114893 511.572763 
L 199.483097 514.342187 
L 201.851302 516.637867 
L 204.219507 518.605773 
L 206.587711 520.024337 
L 208.955916 520.903112 
L 211.324121 521.25435 
L 213.692325 521.213407 
L 216.06053 520.552708 
L 218.428735 519.370323 
L 220.796939 517.691191 
L 223.165144 515.566886 
L 225.533349 512.748198 
L 227.901553 509.716864 
L 230.269758 506.075394 
L 232.637963 502.086787 
L 235.006167 497.540507 
L 237.374372 492.600928 
L 239.742577 487.242011 
L 242.110781 481.459165 
L 244.478986 475.367308 
L 246.84719 468.960408 
L 251.5836 455.169265 
L 261.056418 426.404418 
L 265.792828 412.263369 
L 268.161032 405.445832 
L 270.529237 399.050303 
L 275.265646 387.339135 
L 277.633851 382.063486 
L 280.002056 377.151951 
L 282.37026 372.638219 
L 287.10667 364.399501 
L 291.843079 357.059819 
L 296.579488 350.100771 
L 306.052307 337.427431 
L 310.788716 331.923719 
L 313.156921 329.590777 
L 315.525126 327.602775 
L 317.89333 325.806126 
L 320.261535 324.518468 
L 322.62974 323.643553 
L 324.997944 323.297826 
L 327.366149 323.300245 
L 329.734354 323.809237 
L 332.102558 324.475823 
L 336.838968 326.744627 
L 346.311786 332.253254 
L 351.048196 335.049457 
L 353.4164 336.409002 
L 360.521014 341.097355 
L 362.889219 343.006313 
L 365.257423 345.21463 
L 367.625628 347.774945 
L 369.993833 350.57472 
L 372.362037 353.761193 
L 374.730242 357.235428 
L 379.466651 365.420539 
L 384.203061 374.711417 
L 393.675879 393.901279 
L 396.044084 398.215393 
L 398.412289 402.259823 
L 400.780493 405.974811 
L 403.148698 409.201985 
L 405.516903 412.086109 
L 407.885107 414.26602 
L 410.253312 415.830615 
L 412.621517 416.696155 
L 414.989721 416.885082 
L 417.357926 416.375492 
L 419.726131 415.447379 
L 422.094335 414.029247 
L 424.46254 412.299664 
L 426.830745 410.1702 
L 429.198949 407.878762 
L 433.935359 402.90083 
L 438.671768 398.630872 
L 441.039973 396.736995 
L 443.408177 395.086028 
L 445.776382 393.834046 
L 448.144587 392.876193 
L 450.512791 392.492074 
L 452.880996 392.468669 
L 455.249201 392.985375 
L 457.617405 393.954412 
L 459.98561 395.475752 
L 462.353815 397.286265 
L 464.722019 399.479037 
L 467.090224 402.147677 
L 469.458429 405.208416 
L 474.194838 412.330367 
L 486.035861 431.778879 
L 488.404066 435.39044 
L 490.77227 438.779466 
L 493.140475 441.96784 
L 497.876884 447.606483 
L 500.245089 450.083315 
L 507.349703 456.684122 
L 521.558931 469.174838 
L 526.29534 472.958693 
L 528.663545 474.751436 
L 531.03175 476.334244 
L 533.399954 477.488253 
L 535.768159 478.330264 
L 538.136364 478.848878 
L 538.136364 478.848878 
" style="fill:none;stroke:#ffa500;stroke-linecap:square;stroke-width:2;"/>
   </g>
   <g id="matplotlib.axis_3">
    <g id="xtick_36">
     <g id="line2d_67">
      <g>
       <use style="stroke:#000000;stroke-width:0.8;" x="77.149681" xlink:href="#m2b13f54392" y="543.2"/>
      </g>
     </g>
     <g id="text_17">
      <!-- −1 -->
      <g transform="translate(65.355931 562.3575)scale(0.16 -0.16)">
       <use xlink:href="#DejaVuSans-8722"/>
       <use x="83.789062" xlink:href="#DejaVuSans-49"/>
      </g>
     </g>
    </g>
    <g id="xtick_37">
     <g id="line2d_68">
      <g>
       <use style="stroke:#000000;stroke-width:0.8;" x="165.508916" xlink:href="#m2b13f54392" y="543.2"/>
      </g>
     </g>
     <g id="text_18">
      <!-- 0 -->
      <g transform="translate(160.418916 562.3575)scale(0.16 -0.16)">
       <use xlink:href="#DejaVuSans-48"/>
      </g>
     </g>
    </g>
    <g id="xtick_38">
     <g id="line2d_69">
      <g>
       <use style="stroke:#000000;stroke-width:0.8;" x="253.868151" xlink:href="#m2b13f54392" y="543.2"/>
      </g>
     </g>
     <g id="text_19">
      <!-- 1 -->
      <g transform="translate(248.778151 562.3575)scale(0.16 -0.16)">
       <use xlink:href="#DejaVuSans-49"/>
      </g>
     </g>
    </g>
    <g id="xtick_39">
     <g id="line2d_70">
      <g>
       <use style="stroke:#000000;stroke-width:0.8;" x="342.227385" xlink:href="#m2b13f54392" y="543.2"/>
      </g>
     </g>
     <g id="text_20">
      <!-- 2 -->
      <g transform="translate(337.137385 562.3575)scale(0.16 -0.16)">
       <use xlink:href="#DejaVuSans-50"/>
      </g>
     </g>
    </g>
    <g id="xtick_40">
     <g id="line2d_71">
      <g>
       <use style="stroke:#000000;stroke-width:0.8;" x="430.58662" xlink:href="#m2b13f54392" y="543.2"/>
      </g>
     </g>
     <g id="text_21">
      <!-- 3 -->
      <g transform="translate(425.49662 562.3575)scale(0.16 -0.16)">
       <use xlink:href="#DejaVuSans-51"/>
      </g>
     </g>
    </g>
    <g id="xtick_41">
     <g id="line2d_72">
      <g>
       <use style="stroke:#000000;stroke-width:0.8;" x="518.945855" xlink:href="#m2b13f54392" y="543.2"/>
      </g>
     </g>
     <g id="text_22">
      <!-- 4 -->
      <g transform="translate(513.855855 562.3575)scale(0.16 -0.16)">
       <use xlink:href="#DejaVuSans-52"/>
      </g>
     </g>
    </g>
    <g id="xtick_42">
     <g id="line2d_73">
      <g>
       <use style="stroke:#000000;stroke-width:0.6;" x="59.477834" xlink:href="#me439310ced" y="543.2"/>
      </g>
     </g>
    </g>
    <g id="xtick_43">
     <g id="line2d_74">
      <g>
       <use style="stroke:#000000;stroke-width:0.6;" x="94.821528" xlink:href="#me439310ced" y="543.2"/>
      </g>
     </g>
    </g>
    <g id="xtick_44">
     <g id="line2d_75">
      <g>
       <use style="stroke:#000000;stroke-width:0.6;" x="112.493375" xlink:href="#me439310ced" y="543.2"/>
      </g>
     </g>
    </g>
    <g id="xtick_45">
     <g id="line2d_76">
      <g>
       <use style="stroke:#000000;stroke-width:0.6;" x="130.165222" xlink:href="#me439310ced" y="543.2"/>
      </g>
     </g>
    </g>
    <g id="xtick_46">
     <g id="line2d_77">
      <g>
       <use style="stroke:#000000;stroke-width:0.6;" x="147.837069" xlink:href="#me439310ced" y="543.2"/>
      </g>
     </g>
    </g>
    <g id="xtick_47">
     <g id="line2d_78">
      <g>
       <use style="stroke:#000000;stroke-width:0.6;" x="183.180763" xlink:href="#me439310ced" y="543.2"/>
      </g>
     </g>
    </g>
    <g id="xtick_48">
     <g id="line2d_79">
      <g>
       <use style="stroke:#000000;stroke-width:0.6;" x="200.85261" xlink:href="#me439310ced" y="543.2"/>
      </g>
     </g>
    </g>
    <g id="xtick_49">
     <g id="line2d_80">
      <g>
       <use style="stroke:#000000;stroke-width:0.6;" x="218.524457" xlink:href="#me439310ced" y="543.2"/>
      </g>
     </g>
    </g>
    <g id="xtick_50">
     <g id="line2d_81">
      <g>
       <use style="stroke:#000000;stroke-width:0.6;" x="236.196304" xlink:href="#me439310ced" y="543.2"/>
      </g>
     </g>
    </g>
    <g id="xtick_51">
     <g id="line2d_82">
      <g>
       <use style="stroke:#000000;stroke-width:0.6;" x="271.539998" xlink:href="#me439310ced" y="543.2"/>
      </g>
     </g>
    </g>
    <g id="xtick_52">
     <g id="line2d_83">
      <g>
       <use style="stroke:#000000;stroke-width:0.6;" x="289.211845" xlink:href="#me439310ced" y="543.2"/>
      </g>
     </g>
    </g>
    <g id="xtick_53">
     <g id="line2d_84">
      <g>
       <use style="stroke:#000000;stroke-width:0.6;" x="306.883691" xlink:href="#me439310ced" y="543.2"/>
      </g>
     </g>
    </g>
    <g id="xtick_54">
     <g id="line2d_85">
      <g>
       <use style="stroke:#000000;stroke-width:0.6;" x="324.555538" xlink:href="#me439310ced" y="543.2"/>
      </g>
     </g>
    </g>
    <g id="xtick_55">
     <g id="line2d_86">
      <g>
       <use style="stroke:#000000;stroke-width:0.6;" x="359.899232" xlink:href="#me439310ced" y="543.2"/>
      </g>
     </g>
    </g>
    <g id="xtick_56">
     <g id="line2d_87">
      <g>
       <use style="stroke:#000000;stroke-width:0.6;" x="377.571079" xlink:href="#me439310ced" y="543.2"/>
      </g>
     </g>
    </g>
    <g id="xtick_57">
     <g id="line2d_88">
      <g>
       <use style="stroke:#000000;stroke-width:0.6;" x="395.242926" xlink:href="#me439310ced" y="543.2"/>
      </g>
     </g>
    </g>
    <g id="xtick_58">
     <g id="line2d_89">
      <g>
       <use style="stroke:#000000;stroke-width:0.6;" x="412.914773" xlink:href="#me439310ced" y="543.2"/>
      </g>
     </g>
    </g>
    <g id="xtick_59">
     <g id="line2d_90">
      <g>
       <use style="stroke:#000000;stroke-width:0.6;" x="448.258467" xlink:href="#me439310ced" y="543.2"/>
      </g>
     </g>
    </g>
    <g id="xtick_60">
     <g id="line2d_91">
      <g>
       <use style="stroke:#000000;stroke-width:0.6;" x="465.930314" xlink:href="#me439310ced" y="543.2"/>
      </g>
     </g>
    </g>
    <g id="xtick_61">
     <g id="line2d_92">
      <g>
       <use style="stroke:#000000;stroke-width:0.6;" x="483.602161" xlink:href="#me439310ced" y="543.2"/>
      </g>
     </g>
    </g>
    <g id="xtick_62">
     <g id="line2d_93">
      <g>
       <use style="stroke:#000000;stroke-width:0.6;" x="501.274008" xlink:href="#me439310ced" y="543.2"/>
      </g>
     </g>
    </g>
    <g id="xtick_63">
     <g id="line2d_94">
      <g>
       <use style="stroke:#000000;stroke-width:0.6;" x="536.617702" xlink:href="#me439310ced" y="543.2"/>
      </g>
     </g>
    </g>
    <g id="xtick_64">
     <g id="line2d_95">
      <g>
       <use style="stroke:#000000;stroke-width:0.6;" x="554.289549" xlink:href="#me439310ced" y="543.2"/>
      </g>
     </g>
    </g>
   </g>
   <g id="matplotlib.axis_4">
    <g id="ytick_30">
     <g id="line2d_96">
      <g>
       <use style="stroke:#000000;stroke-width:0.8;" x="43.3" xlink:href="#m298bea722d" y="543.2"/>
      </g>
     </g>
     <g id="text_23">
      <!-- 0.0 -->
      <defs>
       <path d="M 10.6875 12.40625 
L 21 12.40625 
L 21 0 
L 10.6875 0 
z
" id="DejaVuSans-46"/>
      </defs>
      <g transform="translate(10.855 549.27875)scale(0.16 -0.16)">
       <use xlink:href="#DejaVuSans-48"/>
       <use x="63.623047" xlink:href="#DejaVuSans-46"/>
       <use x="95.410156" xlink:href="#DejaVuSans-48"/>
      </g>
     </g>
    </g>
    <g id="ytick_31">
     <g id="line2d_97">
      <g>
       <use style="stroke:#000000;stroke-width:0.8;" x="43.3" xlink:href="#m298bea722d" y="479.343077"/>
      </g>
     </g>
     <g id="text_24">
      <!-- 0.1 -->
      <g transform="translate(10.855 485.421827)scale(0.16 -0.16)">
       <use xlink:href="#DejaVuSans-48"/>
       <use x="63.623047" xlink:href="#DejaVuSans-46"/>
       <use x="95.410156" xlink:href="#DejaVuSans-49"/>
      </g>
     </g>
    </g>
    <g id="ytick_32">
     <g id="line2d_98">
      <g>
       <use style="stroke:#000000;stroke-width:0.8;" x="43.3" xlink:href="#m298bea722d" y="415.486154"/>
      </g>
     </g>
     <g id="text_25">
      <!-- 0.2 -->
      <g transform="translate(10.855 421.564904)scale(0.16 -0.16)">
       <use xlink:href="#DejaVuSans-48"/>
       <use x="63.623047" xlink:href="#DejaVuSans-46"/>
       <use x="95.410156" xlink:href="#DejaVuSans-50"/>
      </g>
     </g>
    </g>
    <g id="ytick_33">
     <g id="line2d_99">
      <g>
       <use style="stroke:#000000;stroke-width:0.8;" x="43.3" xlink:href="#m298bea722d" y="351.629232"/>
      </g>
     </g>
     <g id="text_26">
      <!-- 0.3 -->
      <g transform="translate(10.855 357.707982)scale(0.16 -0.16)">
       <use xlink:href="#DejaVuSans-48"/>
       <use x="63.623047" xlink:href="#DejaVuSans-46"/>
       <use x="95.410156" xlink:href="#DejaVuSans-51"/>
      </g>
     </g>
    </g>
    <g id="ytick_34">
     <g id="line2d_100">
      <g>
       <use style="stroke:#000000;stroke-width:0.6;" x="43.3" xlink:href="#mb43149f8c1" y="530.428615"/>
      </g>
     </g>
    </g>
    <g id="ytick_35">
     <g id="line2d_101">
      <g>
       <use style="stroke:#000000;stroke-width:0.6;" x="43.3" xlink:href="#mb43149f8c1" y="517.657231"/>
      </g>
     </g>
    </g>
    <g id="ytick_36">
     <g id="line2d_102">
      <g>
       <use style="stroke:#000000;stroke-width:0.6;" x="43.3" xlink:href="#mb43149f8c1" y="504.885846"/>
      </g>
     </g>
    </g>
    <g id="ytick_37">
     <g id="line2d_103">
      <g>
       <use style="stroke:#000000;stroke-width:0.6;" x="43.3" xlink:href="#mb43149f8c1" y="492.114462"/>
      </g>
     </g>
    </g>
    <g id="ytick_38">
     <g id="line2d_104">
      <g>
       <use style="stroke:#000000;stroke-width:0.6;" x="43.3" xlink:href="#mb43149f8c1" y="466.571693"/>
      </g>
     </g>
    </g>
    <g id="ytick_39">
     <g id="line2d_105">
      <g>
       <use style="stroke:#000000;stroke-width:0.6;" x="43.3" xlink:href="#mb43149f8c1" y="453.800308"/>
      </g>
     </g>
    </g>
    <g id="ytick_40">
     <g id="line2d_106">
      <g>
       <use style="stroke:#000000;stroke-width:0.6;" x="43.3" xlink:href="#mb43149f8c1" y="441.028923"/>
      </g>
     </g>
    </g>
    <g id="ytick_41">
     <g id="line2d_107">
      <g>
       <use style="stroke:#000000;stroke-width:0.6;" x="43.3" xlink:href="#mb43149f8c1" y="428.257539"/>
      </g>
     </g>
    </g>
    <g id="ytick_42">
     <g id="line2d_108">
      <g>
       <use style="stroke:#000000;stroke-width:0.6;" x="43.3" xlink:href="#mb43149f8c1" y="402.71477"/>
      </g>
     </g>
    </g>
    <g id="ytick_43">
     <g id="line2d_109">
      <g>
       <use style="stroke:#000000;stroke-width:0.6;" x="43.3" xlink:href="#mb43149f8c1" y="389.943385"/>
      </g>
     </g>
    </g>
    <g id="ytick_44">
     <g id="line2d_110">
      <g>
       <use style="stroke:#000000;stroke-width:0.6;" x="43.3" xlink:href="#mb43149f8c1" y="377.172001"/>
      </g>
     </g>
    </g>
    <g id="ytick_45">
     <g id="line2d_111">
      <g>
       <use style="stroke:#000000;stroke-width:0.6;" x="43.3" xlink:href="#mb43149f8c1" y="364.400616"/>
      </g>
     </g>
    </g>
    <g id="ytick_46">
     <g id="line2d_112">
      <g>
       <use style="stroke:#000000;stroke-width:0.6;" x="43.3" xlink:href="#mb43149f8c1" y="338.857847"/>
      </g>
     </g>
    </g>
    <g id="ytick_47">
     <g id="line2d_113">
      <g>
       <use style="stroke:#000000;stroke-width:0.6;" x="43.3" xlink:href="#mb43149f8c1" y="326.086462"/>
      </g>
     </g>
    </g>
   </g>
   <g id="patch_8">
    <path d="M 43.3 543.2 
L 43.3 313.4 
" style="fill:none;stroke:#000000;stroke-linecap:square;stroke-linejoin:miter;stroke-width:0.8;"/>
   </g>
   <g id="patch_9">
    <path d="M 561.7 543.2 
L 561.7 313.4 
" style="fill:none;stroke:#000000;stroke-linecap:square;stroke-linejoin:miter;stroke-width:0.8;"/>
   </g>
   <g id="patch_10">
    <path d="M 43.3 543.2 
L 561.7 543.2 
" style="fill:none;stroke:#000000;stroke-linecap:square;stroke-linejoin:miter;stroke-width:0.8;"/>
   </g>
   <g id="patch_11">
    <path d="M 43.3 313.4 
L 561.7 313.4 
" style="fill:none;stroke:#000000;stroke-linecap:square;stroke-linejoin:miter;stroke-width:0.8;"/>
   </g>
   <g id="text_27">
    <!-- μ marginal posterior -->
    <defs>
     <path d="M 52 44.1875 
Q 55.375 50.25 60.0625 53.125 
Q 64.75 56 71.09375 56 
Q 79.640625 56 84.28125 50.015625 
Q 88.921875 44.046875 88.921875 33.015625 
L 88.921875 0 
L 79.890625 0 
L 79.890625 32.71875 
Q 79.890625 40.578125 77.09375 44.375 
Q 74.3125 48.1875 68.609375 48.1875 
Q 61.625 48.1875 57.5625 43.546875 
Q 53.515625 38.921875 53.515625 30.90625 
L 53.515625 0 
L 44.484375 0 
L 44.484375 32.71875 
Q 44.484375 40.625 41.703125 44.40625 
Q 38.921875 48.1875 33.109375 48.1875 
Q 26.21875 48.1875 22.15625 43.53125 
Q 18.109375 38.875 18.109375 30.90625 
L 18.109375 0 
L 9.078125 0 
L 9.078125 54.6875 
L 18.109375 54.6875 
L 18.109375 46.1875 
Q 21.1875 51.21875 25.484375 53.609375 
Q 29.78125 56 35.6875 56 
Q 41.65625 56 45.828125 52.96875 
Q 50 49.953125 52 44.1875 
z
" id="DejaVuSans-109"/>
     <path d="M 45.40625 27.984375 
Q 45.40625 37.75 41.375 43.109375 
Q 37.359375 48.484375 30.078125 48.484375 
Q 22.859375 48.484375 18.828125 43.109375 
Q 14.796875 37.75 14.796875 27.984375 
Q 14.796875 18.265625 18.828125 12.890625 
Q 22.859375 7.515625 30.078125 7.515625 
Q 37.359375 7.515625 41.375 12.890625 
Q 45.40625 18.265625 45.40625 27.984375 
z
M 54.390625 6.78125 
Q 54.390625 -7.171875 48.1875 -13.984375 
Q 42 -20.796875 29.203125 -20.796875 
Q 24.46875 -20.796875 20.265625 -20.09375 
Q 16.0625 -19.390625 12.109375 -17.921875 
L 12.109375 -9.1875 
Q 16.0625 -11.328125 19.921875 -12.34375 
Q 23.78125 -13.375 27.78125 -13.375 
Q 36.625 -13.375 41.015625 -8.765625 
Q 45.40625 -4.15625 45.40625 5.171875 
L 45.40625 9.625 
Q 42.625 4.78125 38.28125 2.390625 
Q 33.9375 0 27.875 0 
Q 17.828125 0 11.671875 7.65625 
Q 5.515625 15.328125 5.515625 27.984375 
Q 5.515625 40.671875 11.671875 48.328125 
Q 17.828125 56 27.875 56 
Q 33.9375 56 38.28125 53.609375 
Q 42.625 51.21875 45.40625 46.390625 
L 45.40625 54.6875 
L 54.390625 54.6875 
z
" id="DejaVuSans-103"/>
     <path d="M 9.421875 75.984375 
L 18.40625 75.984375 
L 18.40625 0 
L 9.421875 0 
z
" id="DejaVuSans-108"/>
     <path d="M 18.109375 8.203125 
L 18.109375 -20.796875 
L 9.078125 -20.796875 
L 9.078125 54.6875 
L 18.109375 54.6875 
L 18.109375 46.390625 
Q 20.953125 51.265625 25.265625 53.625 
Q 29.59375 56 35.59375 56 
Q 45.5625 56 51.78125 48.09375 
Q 58.015625 40.1875 58.015625 27.296875 
Q 58.015625 14.40625 51.78125 6.484375 
Q 45.5625 -1.421875 35.59375 -1.421875 
Q 29.59375 -1.421875 25.265625 0.953125 
Q 20.953125 3.328125 18.109375 8.203125 
z
M 48.6875 27.296875 
Q 48.6875 37.203125 44.609375 42.84375 
Q 40.53125 48.484375 33.40625 48.484375 
Q 26.265625 48.484375 22.1875 42.84375 
Q 18.109375 37.203125 18.109375 27.296875 
Q 18.109375 17.390625 22.1875 11.75 
Q 26.265625 6.109375 33.40625 6.109375 
Q 40.53125 6.109375 44.609375 11.75 
Q 48.6875 17.390625 48.6875 27.296875 
z
" id="DejaVuSans-112"/>
     <path d="M 44.28125 53.078125 
L 44.28125 44.578125 
Q 40.484375 46.53125 36.375 47.5 
Q 32.28125 48.484375 27.875 48.484375 
Q 21.1875 48.484375 17.84375 46.4375 
Q 14.5 44.390625 14.5 40.28125 
Q 14.5 37.15625 16.890625 35.375 
Q 19.28125 33.59375 26.515625 31.984375 
L 29.59375 31.296875 
Q 39.15625 29.25 43.1875 25.515625 
Q 47.21875 21.78125 47.21875 15.09375 
Q 47.21875 7.46875 41.1875 3.015625 
Q 35.15625 -1.421875 24.609375 -1.421875 
Q 20.21875 -1.421875 15.453125 -0.5625 
Q 10.6875 0.296875 5.421875 2 
L 5.421875 11.28125 
Q 10.40625 8.6875 15.234375 7.390625 
Q 20.0625 6.109375 24.8125 6.109375 
Q 31.15625 6.109375 34.5625 8.28125 
Q 37.984375 10.453125 37.984375 14.40625 
Q 37.984375 18.0625 35.515625 20.015625 
Q 33.0625 21.96875 24.703125 23.78125 
L 21.578125 24.515625 
Q 13.234375 26.265625 9.515625 29.90625 
Q 5.8125 33.546875 5.8125 39.890625 
Q 5.8125 47.609375 11.28125 51.796875 
Q 16.75 56 26.8125 56 
Q 31.78125 56 36.171875 55.265625 
Q 40.578125 54.546875 44.28125 53.078125 
z
" id="DejaVuSans-115"/>
    </defs>
    <g transform="translate(210.757656 307.4)scale(0.18 -0.18)">
     <use xlink:href="#DejaVuSans-956"/>
     <use x="63.623047" xlink:href="#DejaVuSans-32"/>
     <use x="95.410156" xlink:href="#DejaVuSans-109"/>
     <use x="192.822266" xlink:href="#DejaVuSans-97"/>
     <use x="254.101562" xlink:href="#DejaVuSans-114"/>
     <use x="295.199219" xlink:href="#DejaVuSans-103"/>
     <use x="358.675781" xlink:href="#DejaVuSans-105"/>
     <use x="386.458984" xlink:href="#DejaVuSans-110"/>
     <use x="449.837891" xlink:href="#DejaVuSans-97"/>
     <use x="511.117188" xlink:href="#DejaVuSans-108"/>
     <use x="538.900391" xlink:href="#DejaVuSans-32"/>
     <use x="570.6875" xlink:href="#DejaVuSans-112"/>
     <use x="634.164062" xlink:href="#DejaVuSans-111"/>
     <use x="695.345703" xlink:href="#DejaVuSans-115"/>
     <use x="747.445312" xlink:href="#DejaVuSans-116"/>
     <use x="786.654297" xlink:href="#DejaVuSans-101"/>
     <use x="848.177734" xlink:href="#DejaVuSans-114"/>
     <use x="889.291016" xlink:href="#DejaVuSans-105"/>
     <use x="917.074219" xlink:href="#DejaVuSans-111"/>
     <use x="978.255859" xlink:href="#DejaVuSans-114"/>
    </g>
   </g>
   <g id="legend_1">
    <g id="patch_12">
     <path d="M 54.5 349.685 
L 154.465 349.685 
Q 157.665 349.685 157.665 346.485 
L 157.665 324.6 
Q 157.665 321.4 154.465 321.4 
L 54.5 321.4 
Q 51.3 321.4 51.3 324.6 
L 51.3 346.485 
Q 51.3 349.685 54.5 349.685 
z
" style="fill:#ffffff;opacity:0.8;stroke:#cccccc;stroke-linejoin:miter;"/>
    </g>
    <g id="line2d_114">
     <path d="M 57.7 334.3575 
L 89.7 334.3575 
" style="fill:none;stroke:#ffa500;stroke-linecap:square;stroke-width:2;"/>
    </g>
    <g id="line2d_115"/>
    <g id="text_28">
     <!-- mcmc -->
     <g transform="translate(102.5 339.9575)scale(0.16 -0.16)">
      <use xlink:href="#DejaVuSans-109"/>
      <use x="97.412109" xlink:href="#DejaVuSans-99"/>
      <use x="152.392578" xlink:href="#DejaVuSans-109"/>
      <use x="249.804688" xlink:href="#DejaVuSans-99"/>
     </g>
    </g>
   </g>
  </g>
 </g>
 <defs>
  <clipPath id="pe54ab80f96">
   <rect height="229.8" width="518.4" x="43.3" y="30.8"/>
  </clipPath>
  <clipPath id="pc5d5e9f58f">
   <rect height="229.8" width="518.4" x="43.3" y="313.4"/>
  </clipPath>
 </defs>
</svg>
