<?xml version="1.0" encoding="UTF-8" standalone="no"?>
<!DOCTYPE svg PUBLIC "-//W3C//DTD SVG 1.1//EN"
 "http://www.w3.org/Graphics/SVG/1.1/DTD/svg11.dtd">
<!-- Generated by graphviz version 2.40.1 (20161225.0304)
 -->
<!-- Title: %3 Pages: 1 -->
<svg width="371pt" height="155pt"
 viewBox="0.00 0.00 370.59 155.00" xmlns="http://www.w3.org/2000/svg" xmlns:xlink="http://www.w3.org/1999/xlink">
<g id="graph0" class="graph" transform="scale(1 1) rotate(0) translate(4 151)">
<title>%3</title>
<polygon fill="#ffffff" stroke="transparent" points="-4,4 -4,-151 366.5905,-151 366.5905,4 -4,4"/>
<g id="clust1" class="cluster">
<title>cluster3,275</title>
<path fill="none" stroke="#000000" d="M119.2953,-8C119.2953,-8 243.2953,-8 243.2953,-8 249.2953,-8 255.2953,-14 255.2953,-20 255.2953,-20 255.2953,-71 255.2953,-71 255.2953,-77 249.2953,-83 243.2953,-83 243.2953,-83 119.2953,-83 119.2953,-83 113.2953,-83 107.2953,-77 107.2953,-71 107.2953,-71 107.2953,-20 107.2953,-20 107.2953,-14 113.2953,-8 119.2953,-8"/>
<text text-anchor="middle" x="231.2953" y="-15.8" font-family="Times,serif" font-size="14.00" fill="#000000">3,275</text>
</g>
<!-- β -->
<g id="node1" class="node">
<title>β</title>
<ellipse fill="none" stroke="#000000" cx="53.2953" cy="-129" rx="53.0913" ry="18"/>
<text text-anchor="middle" x="53.2953" y="-125.3" font-family="Times,serif" font-size="14.00" fill="#000000">β ~ Normal</text>
</g>
<!-- chl_i -->
<g id="node4" class="node">
<title>chl_i</title>
<ellipse fill="#d3d3d3" stroke="#000000" cx="181.2953" cy="-57" rx="66.0889" ry="18"/>
<text text-anchor="middle" x="181.2953" y="-53.3" font-family="Times,serif" font-size="14.00" fill="#000000">chl_i ~ Normal</text>
</g>
<!-- β&#45;&gt;chl_i -->
<g id="edge1" class="edge">
<title>β&#45;&gt;chl_i</title>
<path fill="none" stroke="#000000" d="M80.7545,-113.5542C98.9733,-103.3061 123.1333,-89.7161 143.2035,-78.4266"/>
<polygon fill="#000000" stroke="#000000" points="145.1014,-81.3748 152.1012,-73.4217 141.6695,-75.2738 145.1014,-81.3748"/>
</g>
<!-- σ -->
<g id="node2" class="node">
<title>σ</title>
<ellipse fill="none" stroke="#000000" cx="181.2953" cy="-129" rx="56.59" ry="18"/>
<text text-anchor="middle" x="181.2953" y="-125.3" font-family="Times,serif" font-size="14.00" fill="#000000">σ ~ Uniform</text>
</g>
<!-- σ&#45;&gt;chl_i -->
<g id="edge2" class="edge">
<title>σ&#45;&gt;chl_i</title>
<path fill="none" stroke="#000000" d="M181.2953,-110.8314C181.2953,-103.131 181.2953,-93.9743 181.2953,-85.4166"/>
<polygon fill="#000000" stroke="#000000" points="184.7954,-85.4132 181.2953,-75.4133 177.7954,-85.4133 184.7954,-85.4132"/>
</g>
<!-- α -->
<g id="node3" class="node">
<title>α</title>
<ellipse fill="none" stroke="#000000" cx="309.2953" cy="-129" rx="53.0913" ry="18"/>
<text text-anchor="middle" x="309.2953" y="-125.3" font-family="Times,serif" font-size="14.00" fill="#000000">α ~ Normal</text>
</g>
<!-- α&#45;&gt;chl_i -->
<g id="edge3" class="edge">
<title>α&#45;&gt;chl_i</title>
<path fill="none" stroke="#000000" d="M281.8361,-113.5542C263.6173,-103.3061 239.4573,-89.7161 219.387,-78.4266"/>
<polygon fill="#000000" stroke="#000000" points="220.921,-75.2738 210.4893,-73.4217 217.4892,-81.3748 220.921,-75.2738"/>
</g>
</g>
</svg>
